G04 #@! TF.GenerationSoftware,KiCad,Pcbnew,7.0.8*
G04 #@! TF.CreationDate,2023-11-05T16:21:54-05:00*
G04 #@! TF.ProjectId,qsd4,71736434-2e6b-4696-9361-645f70636258,rev?*
G04 #@! TF.SameCoordinates,Original*
G04 #@! TF.FileFunction,Legend,Bot*
G04 #@! TF.FilePolarity,Positive*
%FSLAX46Y46*%
G04 Gerber Fmt 4.6, Leading zero omitted, Abs format (unit mm)*
G04 Created by KiCad (PCBNEW 7.0.8) date 2023-11-05 16:21:54*
%MOMM*%
%LPD*%
G01*
G04 APERTURE LIST*
%ADD10C,0.150000*%
%ADD11C,0.120000*%
G04 APERTURE END LIST*
D10*
X145417857Y-65609580D02*
X145465476Y-65657200D01*
X145465476Y-65657200D02*
X145608333Y-65704819D01*
X145608333Y-65704819D02*
X145703571Y-65704819D01*
X145703571Y-65704819D02*
X145846428Y-65657200D01*
X145846428Y-65657200D02*
X145941666Y-65561961D01*
X145941666Y-65561961D02*
X145989285Y-65466723D01*
X145989285Y-65466723D02*
X146036904Y-65276247D01*
X146036904Y-65276247D02*
X146036904Y-65133390D01*
X146036904Y-65133390D02*
X145989285Y-64942914D01*
X145989285Y-64942914D02*
X145941666Y-64847676D01*
X145941666Y-64847676D02*
X145846428Y-64752438D01*
X145846428Y-64752438D02*
X145703571Y-64704819D01*
X145703571Y-64704819D02*
X145608333Y-64704819D01*
X145608333Y-64704819D02*
X145465476Y-64752438D01*
X145465476Y-64752438D02*
X145417857Y-64800057D01*
X144465476Y-65704819D02*
X145036904Y-65704819D01*
X144751190Y-65704819D02*
X144751190Y-64704819D01*
X144751190Y-64704819D02*
X144846428Y-64847676D01*
X144846428Y-64847676D02*
X144941666Y-64942914D01*
X144941666Y-64942914D02*
X145036904Y-64990533D01*
X143846428Y-64704819D02*
X143751190Y-64704819D01*
X143751190Y-64704819D02*
X143655952Y-64752438D01*
X143655952Y-64752438D02*
X143608333Y-64800057D01*
X143608333Y-64800057D02*
X143560714Y-64895295D01*
X143560714Y-64895295D02*
X143513095Y-65085771D01*
X143513095Y-65085771D02*
X143513095Y-65323866D01*
X143513095Y-65323866D02*
X143560714Y-65514342D01*
X143560714Y-65514342D02*
X143608333Y-65609580D01*
X143608333Y-65609580D02*
X143655952Y-65657200D01*
X143655952Y-65657200D02*
X143751190Y-65704819D01*
X143751190Y-65704819D02*
X143846428Y-65704819D01*
X143846428Y-65704819D02*
X143941666Y-65657200D01*
X143941666Y-65657200D02*
X143989285Y-65609580D01*
X143989285Y-65609580D02*
X144036904Y-65514342D01*
X144036904Y-65514342D02*
X144084523Y-65323866D01*
X144084523Y-65323866D02*
X144084523Y-65085771D01*
X144084523Y-65085771D02*
X144036904Y-64895295D01*
X144036904Y-64895295D02*
X143989285Y-64800057D01*
X143989285Y-64800057D02*
X143941666Y-64752438D01*
X143941666Y-64752438D02*
X143846428Y-64704819D01*
X142617856Y-64704819D02*
X142522618Y-64704819D01*
X142522618Y-64704819D02*
X142427380Y-64752438D01*
X142427380Y-64752438D02*
X142379761Y-64800057D01*
X142379761Y-64800057D02*
X142332142Y-64895295D01*
X142332142Y-64895295D02*
X142284523Y-65085771D01*
X142284523Y-65085771D02*
X142284523Y-65323866D01*
X142284523Y-65323866D02*
X142332142Y-65514342D01*
X142332142Y-65514342D02*
X142379761Y-65609580D01*
X142379761Y-65609580D02*
X142427380Y-65657200D01*
X142427380Y-65657200D02*
X142522618Y-65704819D01*
X142522618Y-65704819D02*
X142617856Y-65704819D01*
X142617856Y-65704819D02*
X142713094Y-65657200D01*
X142713094Y-65657200D02*
X142760713Y-65609580D01*
X142760713Y-65609580D02*
X142808332Y-65514342D01*
X142808332Y-65514342D02*
X142855951Y-65323866D01*
X142855951Y-65323866D02*
X142855951Y-65085771D01*
X142855951Y-65085771D02*
X142808332Y-64895295D01*
X142808332Y-64895295D02*
X142760713Y-64800057D01*
X142760713Y-64800057D02*
X142713094Y-64752438D01*
X142713094Y-64752438D02*
X142617856Y-64704819D01*
X141855951Y-65609580D02*
X141808332Y-65657200D01*
X141808332Y-65657200D02*
X141855951Y-65704819D01*
X141855951Y-65704819D02*
X141903570Y-65657200D01*
X141903570Y-65657200D02*
X141855951Y-65609580D01*
X141855951Y-65609580D02*
X141855951Y-65704819D01*
X140855952Y-65704819D02*
X141427380Y-65704819D01*
X141141666Y-65704819D02*
X141141666Y-64704819D01*
X141141666Y-64704819D02*
X141236904Y-64847676D01*
X141236904Y-64847676D02*
X141332142Y-64942914D01*
X141332142Y-64942914D02*
X141427380Y-64990533D01*
X139998809Y-65038152D02*
X139998809Y-65704819D01*
X140427380Y-65038152D02*
X140427380Y-65561961D01*
X140427380Y-65561961D02*
X140379761Y-65657200D01*
X140379761Y-65657200D02*
X140284523Y-65704819D01*
X140284523Y-65704819D02*
X140141666Y-65704819D01*
X140141666Y-65704819D02*
X140046428Y-65657200D01*
X140046428Y-65657200D02*
X139998809Y-65609580D01*
X139189285Y-65181009D02*
X139522618Y-65181009D01*
X139522618Y-65704819D02*
X139522618Y-64704819D01*
X139522618Y-64704819D02*
X139046428Y-64704819D01*
D11*
X141715000Y-62861252D02*
X141715000Y-61438748D01*
X143535000Y-62861252D02*
X143535000Y-61438748D01*
M02*
