G04 #@! TF.GenerationSoftware,KiCad,Pcbnew,7.0.8*
G04 #@! TF.CreationDate,2023-11-05T16:21:54-05:00*
G04 #@! TF.ProjectId,qsd4,71736434-2e6b-4696-9361-645f70636258,rev?*
G04 #@! TF.SameCoordinates,Original*
G04 #@! TF.FileFunction,Copper,L2,Bot*
G04 #@! TF.FilePolarity,Positive*
%FSLAX46Y46*%
G04 Gerber Fmt 4.6, Leading zero omitted, Abs format (unit mm)*
G04 Created by KiCad (PCBNEW 7.0.8) date 2023-11-05 16:21:54*
%MOMM*%
%LPD*%
G01*
G04 APERTURE LIST*
G04 Aperture macros list*
%AMRoundRect*
0 Rectangle with rounded corners*
0 $1 Rounding radius*
0 $2 $3 $4 $5 $6 $7 $8 $9 X,Y pos of 4 corners*
0 Add a 4 corners polygon primitive as box body*
4,1,4,$2,$3,$4,$5,$6,$7,$8,$9,$2,$3,0*
0 Add four circle primitives for the rounded corners*
1,1,$1+$1,$2,$3*
1,1,$1+$1,$4,$5*
1,1,$1+$1,$6,$7*
1,1,$1+$1,$8,$9*
0 Add four rect primitives between the rounded corners*
20,1,$1+$1,$2,$3,$4,$5,0*
20,1,$1+$1,$4,$5,$6,$7,0*
20,1,$1+$1,$6,$7,$8,$9,0*
20,1,$1+$1,$8,$9,$2,$3,0*%
G04 Aperture macros list end*
G04 #@! TA.AperFunction,ComponentPad*
%ADD10R,1.600000X1.600000*%
G04 #@! TD*
G04 #@! TA.AperFunction,ComponentPad*
%ADD11C,1.600000*%
G04 #@! TD*
G04 #@! TA.AperFunction,ComponentPad*
%ADD12C,2.600000*%
G04 #@! TD*
G04 #@! TA.AperFunction,ComponentPad*
%ADD13C,2.500000*%
G04 #@! TD*
G04 #@! TA.AperFunction,ComponentPad*
%ADD14RoundRect,0.250000X-0.600000X-0.600000X0.600000X-0.600000X0.600000X0.600000X-0.600000X0.600000X0*%
G04 #@! TD*
G04 #@! TA.AperFunction,ComponentPad*
%ADD15C,1.700000*%
G04 #@! TD*
G04 #@! TA.AperFunction,SMDPad,CuDef*
%ADD16RoundRect,0.250000X0.650000X-0.325000X0.650000X0.325000X-0.650000X0.325000X-0.650000X-0.325000X0*%
G04 #@! TD*
G04 #@! TA.AperFunction,ViaPad*
%ADD17C,1.000000*%
G04 #@! TD*
G04 #@! TA.AperFunction,Conductor*
%ADD18C,0.500000*%
G04 #@! TD*
G04 #@! TA.AperFunction,Conductor*
%ADD19C,0.250000*%
G04 #@! TD*
G04 APERTURE END LIST*
D10*
X125050000Y-74300000D03*
D11*
X125050000Y-72300000D03*
D10*
X120850000Y-81500000D03*
D11*
X120850000Y-83500000D03*
D12*
X102495000Y-41825000D03*
X102495000Y-46905000D03*
X107575000Y-41825000D03*
X107575000Y-46905000D03*
D13*
X105135000Y-44290000D03*
D12*
X140310000Y-41890000D03*
X140310000Y-46970000D03*
X145390000Y-41890000D03*
X145390000Y-46970000D03*
D13*
X142950000Y-44355000D03*
D10*
X117900000Y-63775000D03*
D11*
X117900000Y-61775000D03*
D14*
X103210000Y-62500000D03*
D15*
X105750000Y-62500000D03*
X103210000Y-65040000D03*
X105750000Y-65040000D03*
X103210000Y-67580000D03*
X105750000Y-67580000D03*
X103210000Y-70120000D03*
X105750000Y-70120000D03*
X103210000Y-72660000D03*
X105750000Y-72660000D03*
X103210000Y-75200000D03*
X105750000Y-75200000D03*
X103210000Y-77740000D03*
X105750000Y-77740000D03*
X103210000Y-80280000D03*
X105750000Y-80280000D03*
D16*
X142625000Y-63625000D03*
X142625000Y-60675000D03*
D17*
X120000000Y-45275000D03*
X122075000Y-48425000D03*
X184025000Y-92725000D03*
X145500000Y-55100000D03*
X137790000Y-83800000D03*
X110225000Y-61375000D03*
X197850000Y-107300000D03*
X127500000Y-75980000D03*
X155700000Y-65630000D03*
X137900000Y-60475000D03*
X172275000Y-57675000D03*
X141025000Y-70225000D03*
X157937200Y-57480200D03*
X166100000Y-82225000D03*
X124079000Y-60147200D03*
X149425000Y-71725000D03*
X161650000Y-84925000D03*
X178620000Y-62240000D03*
X149200000Y-58300000D03*
X197225000Y-60600000D03*
X133900000Y-72375000D03*
X120000000Y-50200000D03*
X191100000Y-113150000D03*
X149220000Y-56280000D03*
X149300000Y-64475000D03*
X176325000Y-65375000D03*
X177275000Y-75225000D03*
X144425000Y-62750000D03*
X126875000Y-65900000D03*
X141050000Y-62050000D03*
X160900000Y-82350000D03*
X131200000Y-53400000D03*
X117200000Y-53950000D03*
X141950000Y-68150000D03*
X100600000Y-55375000D03*
X154575000Y-79675000D03*
X117325000Y-56675000D03*
X163900000Y-82250000D03*
X130860800Y-76936600D03*
X163625000Y-70475000D03*
X170100000Y-84125000D03*
X116275000Y-43875000D03*
X172225000Y-78750000D03*
X174250000Y-41050000D03*
X100700000Y-86975000D03*
X158350000Y-61950000D03*
X152825000Y-62425000D03*
X125475000Y-53500000D03*
X155720000Y-71670000D03*
X133430000Y-78490000D03*
X107400000Y-113150000D03*
X130830000Y-72500000D03*
X116225000Y-46875000D03*
X147300000Y-53250000D03*
X112375000Y-83625000D03*
X134823200Y-61214000D03*
X128150000Y-40800000D03*
X147050000Y-63225000D03*
X144150000Y-92725000D03*
X130650000Y-58325000D03*
X138025000Y-63375000D03*
X161675000Y-75700000D03*
X179725000Y-73775000D03*
X147450000Y-113050000D03*
X197260000Y-41440000D03*
X176300000Y-56030000D03*
X135690000Y-70180000D03*
X166500000Y-65325000D03*
X170675000Y-72675000D03*
X197300000Y-82300000D03*
X129700000Y-45975000D03*
X143450000Y-74820000D03*
X124100000Y-56675000D03*
X106825000Y-92625000D03*
X134467600Y-67386200D03*
X168975000Y-65350000D03*
X134600000Y-49800000D03*
X163575000Y-65850000D03*
X171950000Y-51100000D03*
X122125000Y-45225000D03*
X150300000Y-77000000D03*
X113600000Y-56500000D03*
X147350000Y-61925000D03*
X100550000Y-106550000D03*
X166300000Y-68225000D03*
X142200000Y-56075000D03*
X132575000Y-68900000D03*
X122250000Y-68450000D03*
X138130686Y-67952898D03*
X123275000Y-80050000D03*
X165125000Y-58525000D03*
X144120000Y-51180000D03*
X120000000Y-48450000D03*
X159610000Y-85150000D03*
X129220000Y-77140000D03*
X144125000Y-67050000D03*
X154000000Y-61000000D03*
X152400000Y-69375000D03*
X138150000Y-65325000D03*
X147889969Y-65150500D03*
X147950000Y-68700000D03*
X143950000Y-65325000D03*
X141100000Y-66625000D03*
X147125000Y-67275000D03*
X141125000Y-64975000D03*
X147225000Y-58600000D03*
X144000000Y-55070000D03*
X143025000Y-59025000D03*
X141300000Y-57300000D03*
X132400000Y-71400000D03*
X148050000Y-57300000D03*
X145500000Y-61725000D03*
X136425000Y-61125000D03*
D18*
X129220000Y-77140000D02*
X137235000Y-85155000D01*
X137240000Y-85150000D02*
X137235000Y-85155000D01*
X125050000Y-74300000D02*
X125225000Y-74300000D01*
X159610000Y-85150000D02*
X137240000Y-85150000D01*
D19*
X141666727Y-67225000D02*
X143000000Y-67225000D01*
X144125000Y-67050000D02*
X144100000Y-67075000D01*
X143000000Y-67225000D02*
X143175000Y-67050000D01*
X154000000Y-67775000D02*
X152400000Y-69375000D01*
X140275000Y-67450000D02*
X141441727Y-67450000D01*
X141441727Y-67450000D02*
X141666727Y-67225000D01*
X138150000Y-65325000D02*
X140275000Y-67450000D01*
X143175000Y-67050000D02*
X144125000Y-67050000D01*
X154000000Y-61000000D02*
X154000000Y-67775000D01*
X141100000Y-66625000D02*
X142650000Y-66625000D01*
X142650000Y-66625000D02*
X143950000Y-65325000D01*
X147889969Y-65150500D02*
X148525000Y-65785531D01*
X148525000Y-68125000D02*
X147950000Y-68700000D01*
X148525000Y-65785531D02*
X148525000Y-68125000D01*
X143450000Y-64500000D02*
X144350000Y-64500000D01*
X141130000Y-64970000D02*
X142980000Y-64970000D01*
X141125000Y-64975000D02*
X141130000Y-64970000D01*
X142980000Y-64970000D02*
X143450000Y-64500000D01*
X144350000Y-64500000D02*
X147125000Y-67275000D01*
X147225000Y-58600000D02*
X145175000Y-56550000D01*
X145175000Y-56300000D02*
X144000000Y-55125000D01*
X144000000Y-55125000D02*
X144000000Y-55070000D01*
X145175000Y-56550000D02*
X145175000Y-56300000D01*
X103210000Y-62500000D02*
X103225000Y-62500000D01*
X141300000Y-57300000D02*
X143025000Y-59025000D01*
X146025000Y-61200000D02*
X146450000Y-61200000D01*
D18*
X132650000Y-71400000D02*
X136425000Y-67625000D01*
X136375000Y-61125000D02*
X136975000Y-61725000D01*
D19*
X146450000Y-61200000D02*
X148050000Y-59600000D01*
D18*
X142625000Y-60675000D02*
X144450000Y-60675000D01*
X132400000Y-71400000D02*
X132650000Y-71400000D01*
X136425000Y-67625000D02*
X136425000Y-61125000D01*
D19*
X145500000Y-61725000D02*
X146025000Y-61200000D01*
D18*
X144450000Y-60675000D02*
X145500000Y-61725000D01*
X139750000Y-61725000D02*
X140800000Y-60675000D01*
X136975000Y-61725000D02*
X139750000Y-61725000D01*
D19*
X148050000Y-59600000D02*
X148050000Y-57300000D01*
D18*
X140800000Y-60675000D02*
X142625000Y-60675000D01*
G04 #@! TA.AperFunction,Conductor*
G36*
X104564855Y-78406546D02*
G01*
X104581575Y-78425842D01*
X104711500Y-78611395D01*
X104711505Y-78611401D01*
X104878599Y-78778495D01*
X105064594Y-78908730D01*
X105108218Y-78963307D01*
X105115411Y-79032806D01*
X105083889Y-79095160D01*
X105064593Y-79111880D01*
X104988626Y-79165072D01*
X104988625Y-79165072D01*
X105617466Y-79793913D01*
X105607685Y-79795320D01*
X105476900Y-79855048D01*
X105368239Y-79949202D01*
X105290507Y-80070156D01*
X105266923Y-80150476D01*
X104635072Y-79518625D01*
X104635072Y-79518626D01*
X104581574Y-79595030D01*
X104526998Y-79638655D01*
X104457499Y-79645849D01*
X104395144Y-79614326D01*
X104378424Y-79595030D01*
X104324925Y-79518626D01*
X104324925Y-79518625D01*
X103693076Y-80150475D01*
X103669493Y-80070156D01*
X103591761Y-79949202D01*
X103483100Y-79855048D01*
X103352315Y-79795320D01*
X103342533Y-79793913D01*
X103971373Y-79165073D01*
X103971373Y-79165072D01*
X103895405Y-79111880D01*
X103851780Y-79057304D01*
X103844586Y-78987805D01*
X103876108Y-78925451D01*
X103895399Y-78908734D01*
X104081401Y-78778495D01*
X104248495Y-78611401D01*
X104378425Y-78425842D01*
X104433002Y-78382217D01*
X104502500Y-78375023D01*
X104564855Y-78406546D01*
G37*
G04 #@! TD.AperFunction*
G04 #@! TA.AperFunction,Conductor*
G36*
X105290507Y-75409844D02*
G01*
X105368239Y-75530798D01*
X105476900Y-75624952D01*
X105607685Y-75684680D01*
X105617466Y-75686086D01*
X104988625Y-76314925D01*
X105064594Y-76368119D01*
X105108219Y-76422696D01*
X105115413Y-76492194D01*
X105083890Y-76554549D01*
X105064595Y-76571269D01*
X104878594Y-76701508D01*
X104711505Y-76868597D01*
X104581575Y-77054158D01*
X104526998Y-77097783D01*
X104457500Y-77104977D01*
X104395145Y-77073454D01*
X104378425Y-77054158D01*
X104248494Y-76868597D01*
X104081402Y-76701506D01*
X104081401Y-76701505D01*
X103895405Y-76571269D01*
X103851781Y-76516692D01*
X103844588Y-76447193D01*
X103876110Y-76384839D01*
X103895405Y-76368119D01*
X103971373Y-76314925D01*
X103342533Y-75686086D01*
X103352315Y-75684680D01*
X103483100Y-75624952D01*
X103591761Y-75530798D01*
X103669493Y-75409844D01*
X103693076Y-75329524D01*
X104324925Y-75961373D01*
X104378425Y-75884968D01*
X104433002Y-75841344D01*
X104502501Y-75834151D01*
X104564855Y-75865673D01*
X104581576Y-75884969D01*
X104635073Y-75961372D01*
X105266922Y-75329523D01*
X105290507Y-75409844D01*
G37*
G04 #@! TD.AperFunction*
G04 #@! TA.AperFunction,Conductor*
G36*
X104564855Y-73326546D02*
G01*
X104581575Y-73345842D01*
X104711500Y-73531395D01*
X104711505Y-73531401D01*
X104878599Y-73698495D01*
X105064594Y-73828730D01*
X105108218Y-73883307D01*
X105115411Y-73952806D01*
X105083889Y-74015160D01*
X105064593Y-74031880D01*
X104988626Y-74085072D01*
X104988625Y-74085072D01*
X105617466Y-74713913D01*
X105607685Y-74715320D01*
X105476900Y-74775048D01*
X105368239Y-74869202D01*
X105290507Y-74990156D01*
X105266923Y-75070476D01*
X104635072Y-74438625D01*
X104635072Y-74438626D01*
X104581574Y-74515030D01*
X104526998Y-74558655D01*
X104457499Y-74565849D01*
X104395144Y-74534326D01*
X104378424Y-74515030D01*
X104324925Y-74438626D01*
X104324925Y-74438625D01*
X103693076Y-75070475D01*
X103669493Y-74990156D01*
X103591761Y-74869202D01*
X103483100Y-74775048D01*
X103352315Y-74715320D01*
X103342533Y-74713913D01*
X103971373Y-74085073D01*
X103971373Y-74085072D01*
X103895405Y-74031880D01*
X103851780Y-73977304D01*
X103844586Y-73907805D01*
X103876108Y-73845451D01*
X103895399Y-73828734D01*
X104081401Y-73698495D01*
X104248495Y-73531401D01*
X104378425Y-73345842D01*
X104433002Y-73302217D01*
X104502500Y-73295023D01*
X104564855Y-73326546D01*
G37*
G04 #@! TD.AperFunction*
G04 #@! TA.AperFunction,Conductor*
G36*
X105290507Y-70329844D02*
G01*
X105368239Y-70450798D01*
X105476900Y-70544952D01*
X105607685Y-70604680D01*
X105617466Y-70606086D01*
X104988625Y-71234925D01*
X105064594Y-71288119D01*
X105108219Y-71342696D01*
X105115413Y-71412194D01*
X105083890Y-71474549D01*
X105064595Y-71491269D01*
X104878594Y-71621508D01*
X104711505Y-71788597D01*
X104581575Y-71974158D01*
X104526998Y-72017783D01*
X104457500Y-72024977D01*
X104395145Y-71993454D01*
X104378425Y-71974158D01*
X104248494Y-71788597D01*
X104081402Y-71621506D01*
X104081401Y-71621505D01*
X103895405Y-71491269D01*
X103851781Y-71436692D01*
X103844588Y-71367193D01*
X103876110Y-71304839D01*
X103895405Y-71288119D01*
X103971373Y-71234925D01*
X103342533Y-70606086D01*
X103352315Y-70604680D01*
X103483100Y-70544952D01*
X103591761Y-70450798D01*
X103669493Y-70329844D01*
X103693076Y-70249524D01*
X104324925Y-70881373D01*
X104378425Y-70804968D01*
X104433002Y-70761344D01*
X104502501Y-70754151D01*
X104564855Y-70785673D01*
X104581576Y-70804969D01*
X104635073Y-70881372D01*
X105266922Y-70249523D01*
X105290507Y-70329844D01*
G37*
G04 #@! TD.AperFunction*
G04 #@! TA.AperFunction,Conductor*
G36*
X104564855Y-68246546D02*
G01*
X104581575Y-68265842D01*
X104711500Y-68451395D01*
X104711505Y-68451401D01*
X104878599Y-68618495D01*
X104995002Y-68700001D01*
X105064594Y-68748730D01*
X105108218Y-68803307D01*
X105115411Y-68872806D01*
X105083889Y-68935160D01*
X105064593Y-68951880D01*
X104988626Y-69005072D01*
X104988625Y-69005072D01*
X105617466Y-69633913D01*
X105607685Y-69635320D01*
X105476900Y-69695048D01*
X105368239Y-69789202D01*
X105290507Y-69910156D01*
X105266923Y-69990476D01*
X104635072Y-69358625D01*
X104635072Y-69358626D01*
X104581574Y-69435030D01*
X104526998Y-69478655D01*
X104457499Y-69485849D01*
X104395144Y-69454326D01*
X104378424Y-69435030D01*
X104324925Y-69358626D01*
X104324925Y-69358625D01*
X103693076Y-69990475D01*
X103669493Y-69910156D01*
X103591761Y-69789202D01*
X103483100Y-69695048D01*
X103352315Y-69635320D01*
X103342533Y-69633913D01*
X103971373Y-69005073D01*
X103971373Y-69005072D01*
X103895405Y-68951880D01*
X103851780Y-68897304D01*
X103844586Y-68827805D01*
X103876108Y-68765451D01*
X103895399Y-68748734D01*
X104081401Y-68618495D01*
X104248495Y-68451401D01*
X104378425Y-68265842D01*
X104433002Y-68222217D01*
X104502500Y-68215023D01*
X104564855Y-68246546D01*
G37*
G04 #@! TD.AperFunction*
G04 #@! TA.AperFunction,Conductor*
G36*
X101494076Y-40120185D02*
G01*
X101539831Y-40172989D01*
X101549775Y-40242147D01*
X101520750Y-40305703D01*
X101496888Y-40326954D01*
X101409848Y-40386296D01*
X102131891Y-41108338D01*
X101993052Y-41195577D01*
X101865577Y-41323052D01*
X101778338Y-41461891D01*
X101057295Y-40740848D01*
X101003600Y-40808180D01*
X100868709Y-41041818D01*
X100770148Y-41292947D01*
X100770142Y-41292966D01*
X100710113Y-41555971D01*
X100710113Y-41555973D01*
X100689953Y-41824995D01*
X100689953Y-41825004D01*
X100710113Y-42094026D01*
X100710113Y-42094028D01*
X100770142Y-42357033D01*
X100770148Y-42357052D01*
X100868709Y-42608181D01*
X100868708Y-42608181D01*
X101003602Y-42841822D01*
X101057294Y-42909151D01*
X101057295Y-42909151D01*
X101778338Y-42188108D01*
X101865577Y-42326948D01*
X101993052Y-42454423D01*
X102131890Y-42541661D01*
X101409848Y-43263702D01*
X101592483Y-43388220D01*
X101592485Y-43388221D01*
X101835539Y-43505269D01*
X101835537Y-43505269D01*
X102093337Y-43584790D01*
X102093343Y-43584792D01*
X102360101Y-43624999D01*
X102360110Y-43625000D01*
X102629890Y-43625000D01*
X102629898Y-43624999D01*
X102896656Y-43584792D01*
X102896662Y-43584790D01*
X103154458Y-43505270D01*
X103372927Y-43400061D01*
X103441869Y-43388709D01*
X103506003Y-43416431D01*
X103544969Y-43474426D01*
X103546394Y-43544281D01*
X103542158Y-43557081D01*
X103457583Y-43772578D01*
X103457578Y-43772590D01*
X103457576Y-43772597D01*
X103399197Y-44028374D01*
X103399196Y-44028379D01*
X103379592Y-44289995D01*
X103379592Y-44290004D01*
X103399196Y-44551620D01*
X103399197Y-44551625D01*
X103457576Y-44807402D01*
X103457582Y-44807421D01*
X103553432Y-45051643D01*
X103659256Y-45234937D01*
X103675729Y-45302837D01*
X103652876Y-45368864D01*
X103597955Y-45412055D01*
X103528402Y-45418696D01*
X103482017Y-45399390D01*
X103397526Y-45341784D01*
X103397516Y-45341778D01*
X103154460Y-45224730D01*
X103154462Y-45224730D01*
X102896662Y-45145209D01*
X102896656Y-45145207D01*
X102629898Y-45105000D01*
X102360101Y-45105000D01*
X102093343Y-45145207D01*
X102093337Y-45145209D01*
X101835538Y-45224730D01*
X101592485Y-45341778D01*
X101592476Y-45341783D01*
X101409848Y-45466296D01*
X102131891Y-46188338D01*
X101993052Y-46275577D01*
X101865577Y-46403052D01*
X101778338Y-46541891D01*
X101057295Y-45820848D01*
X101003600Y-45888180D01*
X100868709Y-46121818D01*
X100770148Y-46372947D01*
X100770142Y-46372966D01*
X100710113Y-46635971D01*
X100710113Y-46635973D01*
X100689953Y-46904995D01*
X100689953Y-46905004D01*
X100710113Y-47174026D01*
X100710113Y-47174028D01*
X100770142Y-47437033D01*
X100770148Y-47437052D01*
X100868709Y-47688181D01*
X100868708Y-47688181D01*
X101003602Y-47921822D01*
X101057294Y-47989151D01*
X101057295Y-47989151D01*
X101778338Y-47268108D01*
X101865577Y-47406948D01*
X101993052Y-47534423D01*
X102131890Y-47621661D01*
X101409848Y-48343702D01*
X101592483Y-48468220D01*
X101592485Y-48468221D01*
X101835539Y-48585269D01*
X101835537Y-48585269D01*
X102093337Y-48664790D01*
X102093343Y-48664792D01*
X102360101Y-48704999D01*
X102360110Y-48705000D01*
X102629890Y-48705000D01*
X102629898Y-48704999D01*
X102896656Y-48664792D01*
X102896662Y-48664790D01*
X103154461Y-48585269D01*
X103397521Y-48468218D01*
X103580150Y-48343702D01*
X102858108Y-47621661D01*
X102996948Y-47534423D01*
X103124423Y-47406948D01*
X103211661Y-47268108D01*
X103932703Y-47989151D01*
X103932704Y-47989150D01*
X103986393Y-47921828D01*
X103986400Y-47921817D01*
X104121290Y-47688181D01*
X104219851Y-47437052D01*
X104219857Y-47437033D01*
X104279886Y-47174028D01*
X104279886Y-47174026D01*
X104300047Y-46905004D01*
X104300047Y-46904995D01*
X104279886Y-46635973D01*
X104279886Y-46635971D01*
X104219857Y-46372966D01*
X104219851Y-46372947D01*
X104121290Y-46121818D01*
X104121291Y-46121818D01*
X104007961Y-45925527D01*
X103991488Y-45857627D01*
X104014340Y-45791600D01*
X104069261Y-45748410D01*
X104138815Y-45741768D01*
X104185197Y-45761071D01*
X104257296Y-45810228D01*
X104257301Y-45810230D01*
X104257302Y-45810231D01*
X104257303Y-45810232D01*
X104355721Y-45857627D01*
X104493673Y-45924061D01*
X104493674Y-45924061D01*
X104493677Y-45924063D01*
X104744385Y-46001396D01*
X105003818Y-46040500D01*
X105266182Y-46040500D01*
X105525615Y-46001396D01*
X105776323Y-45924063D01*
X105811056Y-45907336D01*
X105879994Y-45895985D01*
X105944128Y-45923706D01*
X105983094Y-45981701D01*
X105984520Y-46051556D01*
X105972243Y-46081056D01*
X105948708Y-46121820D01*
X105850148Y-46372947D01*
X105850142Y-46372966D01*
X105790113Y-46635971D01*
X105790113Y-46635973D01*
X105769953Y-46904995D01*
X105769953Y-46905004D01*
X105790113Y-47174026D01*
X105790113Y-47174028D01*
X105850142Y-47437033D01*
X105850148Y-47437052D01*
X105948709Y-47688181D01*
X105948708Y-47688181D01*
X106083602Y-47921822D01*
X106137294Y-47989151D01*
X106858338Y-47268107D01*
X106945577Y-47406948D01*
X107073052Y-47534423D01*
X107211890Y-47621661D01*
X106489848Y-48343702D01*
X106672483Y-48468220D01*
X106672485Y-48468221D01*
X106915539Y-48585269D01*
X106915537Y-48585269D01*
X107173337Y-48664790D01*
X107173343Y-48664792D01*
X107440101Y-48704999D01*
X107440110Y-48705000D01*
X107709890Y-48705000D01*
X107709898Y-48704999D01*
X107976656Y-48664792D01*
X107976662Y-48664790D01*
X108234461Y-48585269D01*
X108477521Y-48468218D01*
X108660150Y-48343702D01*
X107938108Y-47621661D01*
X108076948Y-47534423D01*
X108204423Y-47406948D01*
X108291661Y-47268108D01*
X109012703Y-47989151D01*
X109012704Y-47989150D01*
X109066393Y-47921828D01*
X109066400Y-47921817D01*
X109201290Y-47688181D01*
X109299851Y-47437052D01*
X109299857Y-47437033D01*
X109359886Y-47174028D01*
X109359886Y-47174026D01*
X109380047Y-46905004D01*
X109380047Y-46904995D01*
X109359886Y-46635973D01*
X109359886Y-46635971D01*
X109299857Y-46372966D01*
X109299851Y-46372947D01*
X109201290Y-46121818D01*
X109201291Y-46121818D01*
X109066397Y-45888177D01*
X109012704Y-45820847D01*
X108291660Y-46541890D01*
X108204423Y-46403052D01*
X108076948Y-46275577D01*
X107938108Y-46188338D01*
X108660150Y-45466296D01*
X108477517Y-45341779D01*
X108477516Y-45341778D01*
X108234460Y-45224730D01*
X108234462Y-45224730D01*
X107976662Y-45145209D01*
X107976656Y-45145207D01*
X107709898Y-45105000D01*
X107440101Y-45105000D01*
X107173343Y-45145207D01*
X107173337Y-45145209D01*
X106915544Y-45224728D01*
X106863711Y-45249690D01*
X106794769Y-45261041D01*
X106730635Y-45233318D01*
X106691670Y-45175323D01*
X106690245Y-45105468D01*
X106702522Y-45075970D01*
X106716568Y-45051643D01*
X106812420Y-44807416D01*
X106870802Y-44551630D01*
X106870803Y-44551620D01*
X106890408Y-44290004D01*
X106890408Y-44289995D01*
X106870803Y-44028379D01*
X106870802Y-44028374D01*
X106870802Y-44028370D01*
X106812420Y-43772584D01*
X106772923Y-43671949D01*
X106766755Y-43602353D01*
X106799193Y-43540470D01*
X106859938Y-43505947D01*
X106924902Y-43508157D01*
X107173337Y-43584790D01*
X107173343Y-43584792D01*
X107440101Y-43624999D01*
X107440110Y-43625000D01*
X107709890Y-43625000D01*
X107709898Y-43624999D01*
X107976656Y-43584792D01*
X107976662Y-43584790D01*
X108234461Y-43505269D01*
X108477521Y-43388218D01*
X108660150Y-43263702D01*
X107938108Y-42541661D01*
X108076948Y-42454423D01*
X108204423Y-42326948D01*
X108291661Y-42188108D01*
X109012703Y-42909151D01*
X109012704Y-42909150D01*
X109066393Y-42841828D01*
X109066400Y-42841817D01*
X109201290Y-42608181D01*
X109299851Y-42357052D01*
X109299857Y-42357033D01*
X109359886Y-42094028D01*
X109359886Y-42094026D01*
X109380047Y-41825004D01*
X109380047Y-41824995D01*
X109359886Y-41555973D01*
X109359886Y-41555971D01*
X109299857Y-41292966D01*
X109299851Y-41292947D01*
X109201290Y-41041818D01*
X109201291Y-41041818D01*
X109066397Y-40808177D01*
X109012704Y-40740847D01*
X108291660Y-41461890D01*
X108204423Y-41323052D01*
X108076948Y-41195577D01*
X107938108Y-41108338D01*
X108660150Y-40386296D01*
X108573111Y-40326954D01*
X108528809Y-40272925D01*
X108520750Y-40203521D01*
X108551493Y-40140779D01*
X108611277Y-40104617D01*
X108642963Y-40100500D01*
X139337376Y-40100500D01*
X139404415Y-40120185D01*
X139450170Y-40172989D01*
X139460114Y-40242147D01*
X139431089Y-40305703D01*
X139407227Y-40326954D01*
X139224848Y-40451296D01*
X139946891Y-41173338D01*
X139808052Y-41260577D01*
X139680577Y-41388052D01*
X139593338Y-41526891D01*
X138872295Y-40805848D01*
X138818600Y-40873180D01*
X138683709Y-41106818D01*
X138585148Y-41357947D01*
X138585142Y-41357966D01*
X138525113Y-41620971D01*
X138525113Y-41620973D01*
X138504953Y-41889995D01*
X138504953Y-41890004D01*
X138525113Y-42159026D01*
X138525113Y-42159028D01*
X138585142Y-42422033D01*
X138585148Y-42422052D01*
X138683709Y-42673181D01*
X138683708Y-42673181D01*
X138818602Y-42906822D01*
X138872294Y-42974151D01*
X139593337Y-42253107D01*
X139680577Y-42391948D01*
X139808052Y-42519423D01*
X139946890Y-42606661D01*
X139224848Y-43328702D01*
X139407483Y-43453220D01*
X139407485Y-43453221D01*
X139650539Y-43570269D01*
X139650537Y-43570269D01*
X139908337Y-43649790D01*
X139908343Y-43649792D01*
X140175101Y-43689999D01*
X140175110Y-43690000D01*
X140444890Y-43690000D01*
X140444898Y-43689999D01*
X140711656Y-43649792D01*
X140711662Y-43649790D01*
X140969458Y-43570270D01*
X141187927Y-43465061D01*
X141256869Y-43453709D01*
X141321003Y-43481431D01*
X141359969Y-43539426D01*
X141361394Y-43609281D01*
X141357158Y-43622081D01*
X141272583Y-43837578D01*
X141272578Y-43837590D01*
X141272576Y-43837597D01*
X141214197Y-44093374D01*
X141214196Y-44093379D01*
X141194592Y-44354995D01*
X141194592Y-44355004D01*
X141214196Y-44616620D01*
X141214197Y-44616625D01*
X141272576Y-44872402D01*
X141272582Y-44872421D01*
X141368432Y-45116643D01*
X141474256Y-45299937D01*
X141490729Y-45367837D01*
X141467876Y-45433864D01*
X141412955Y-45477055D01*
X141343402Y-45483696D01*
X141297017Y-45464390D01*
X141212526Y-45406784D01*
X141212516Y-45406778D01*
X140969460Y-45289730D01*
X140969462Y-45289730D01*
X140711662Y-45210209D01*
X140711656Y-45210207D01*
X140444898Y-45170000D01*
X140175101Y-45170000D01*
X139908343Y-45210207D01*
X139908337Y-45210209D01*
X139650538Y-45289730D01*
X139407485Y-45406778D01*
X139407476Y-45406783D01*
X139224848Y-45531296D01*
X139946891Y-46253338D01*
X139808052Y-46340577D01*
X139680577Y-46468052D01*
X139593338Y-46606891D01*
X138872295Y-45885848D01*
X138818600Y-45953180D01*
X138683709Y-46186818D01*
X138585148Y-46437947D01*
X138585142Y-46437966D01*
X138525113Y-46700971D01*
X138525113Y-46700973D01*
X138504953Y-46969995D01*
X138504953Y-46970004D01*
X138525113Y-47239026D01*
X138525113Y-47239028D01*
X138585142Y-47502033D01*
X138585148Y-47502052D01*
X138683709Y-47753181D01*
X138683708Y-47753181D01*
X138818602Y-47986822D01*
X138872294Y-48054151D01*
X139593337Y-47333107D01*
X139680577Y-47471948D01*
X139808052Y-47599423D01*
X139946890Y-47686661D01*
X139224848Y-48408702D01*
X139407483Y-48533220D01*
X139407485Y-48533221D01*
X139650539Y-48650269D01*
X139650537Y-48650269D01*
X139908337Y-48729790D01*
X139908343Y-48729792D01*
X140175101Y-48769999D01*
X140175110Y-48770000D01*
X140444890Y-48770000D01*
X140444898Y-48769999D01*
X140711656Y-48729792D01*
X140711662Y-48729790D01*
X140969461Y-48650269D01*
X141212521Y-48533218D01*
X141395150Y-48408702D01*
X140673108Y-47686661D01*
X140811948Y-47599423D01*
X140939423Y-47471948D01*
X141026661Y-47333108D01*
X141747703Y-48054151D01*
X141747704Y-48054150D01*
X141801393Y-47986828D01*
X141801400Y-47986817D01*
X141936290Y-47753181D01*
X142034851Y-47502052D01*
X142034857Y-47502033D01*
X142094886Y-47239028D01*
X142094886Y-47239026D01*
X142115047Y-46970004D01*
X142115047Y-46969995D01*
X142094886Y-46700973D01*
X142094886Y-46700971D01*
X142034857Y-46437966D01*
X142034851Y-46437947D01*
X141936290Y-46186818D01*
X141936291Y-46186818D01*
X141822961Y-45990527D01*
X141806488Y-45922627D01*
X141829340Y-45856600D01*
X141884261Y-45813410D01*
X141953815Y-45806768D01*
X142000197Y-45826071D01*
X142072296Y-45875228D01*
X142072301Y-45875230D01*
X142072302Y-45875231D01*
X142072303Y-45875232D01*
X142173699Y-45924061D01*
X142308673Y-45989061D01*
X142308674Y-45989061D01*
X142308677Y-45989063D01*
X142559385Y-46066396D01*
X142818818Y-46105500D01*
X143081182Y-46105500D01*
X143340615Y-46066396D01*
X143591323Y-45989063D01*
X143626056Y-45972336D01*
X143694994Y-45960985D01*
X143759128Y-45988706D01*
X143798094Y-46046701D01*
X143799520Y-46116556D01*
X143787243Y-46146056D01*
X143763708Y-46186820D01*
X143665148Y-46437947D01*
X143665142Y-46437966D01*
X143605113Y-46700971D01*
X143605113Y-46700973D01*
X143584953Y-46969995D01*
X143584953Y-46970004D01*
X143605113Y-47239026D01*
X143605113Y-47239028D01*
X143665142Y-47502033D01*
X143665148Y-47502052D01*
X143763709Y-47753181D01*
X143763708Y-47753181D01*
X143898602Y-47986822D01*
X143952294Y-48054151D01*
X144673338Y-47333107D01*
X144760577Y-47471948D01*
X144888052Y-47599423D01*
X145026890Y-47686661D01*
X144304848Y-48408702D01*
X144487483Y-48533220D01*
X144487485Y-48533221D01*
X144730539Y-48650269D01*
X144730537Y-48650269D01*
X144988337Y-48729790D01*
X144988343Y-48729792D01*
X145255101Y-48769999D01*
X145255110Y-48770000D01*
X145524890Y-48770000D01*
X145524898Y-48769999D01*
X145791656Y-48729792D01*
X145791662Y-48729790D01*
X146049461Y-48650269D01*
X146292521Y-48533218D01*
X146475150Y-48408702D01*
X145753108Y-47686661D01*
X145891948Y-47599423D01*
X146019423Y-47471948D01*
X146106661Y-47333108D01*
X146827703Y-48054151D01*
X146827704Y-48054150D01*
X146881393Y-47986828D01*
X146881400Y-47986817D01*
X147016290Y-47753181D01*
X147114851Y-47502052D01*
X147114857Y-47502033D01*
X147174886Y-47239028D01*
X147174886Y-47239026D01*
X147195047Y-46970004D01*
X147195047Y-46969995D01*
X147174886Y-46700973D01*
X147174886Y-46700971D01*
X147114857Y-46437966D01*
X147114851Y-46437947D01*
X147016290Y-46186818D01*
X147016291Y-46186818D01*
X146881397Y-45953177D01*
X146827704Y-45885847D01*
X146106660Y-46606890D01*
X146019423Y-46468052D01*
X145891948Y-46340577D01*
X145753108Y-46253338D01*
X146475150Y-45531296D01*
X146292517Y-45406779D01*
X146292516Y-45406778D01*
X146049460Y-45289730D01*
X146049462Y-45289730D01*
X145791662Y-45210209D01*
X145791656Y-45210207D01*
X145524898Y-45170000D01*
X145255101Y-45170000D01*
X144988343Y-45210207D01*
X144988337Y-45210209D01*
X144730544Y-45289728D01*
X144678711Y-45314690D01*
X144609769Y-45326041D01*
X144545635Y-45298318D01*
X144506670Y-45240323D01*
X144505245Y-45170468D01*
X144517522Y-45140970D01*
X144531568Y-45116643D01*
X144627420Y-44872416D01*
X144685802Y-44616630D01*
X144689202Y-44571256D01*
X144705408Y-44355004D01*
X144705408Y-44354995D01*
X144685803Y-44093379D01*
X144685802Y-44093374D01*
X144685802Y-44093370D01*
X144636508Y-43877401D01*
X180125746Y-43877401D01*
X180135745Y-44087327D01*
X180185296Y-44291578D01*
X180185298Y-44291582D01*
X180272598Y-44482743D01*
X180272601Y-44482748D01*
X180272602Y-44482750D01*
X180272604Y-44482753D01*
X180394514Y-44653952D01*
X180394515Y-44653953D01*
X180394520Y-44653959D01*
X180546620Y-44798985D01*
X180641578Y-44860011D01*
X180723428Y-44912613D01*
X180918543Y-44990725D01*
X181021729Y-45010612D01*
X181124914Y-45030500D01*
X181124915Y-45030500D01*
X181282419Y-45030500D01*
X181282425Y-45030500D01*
X181439218Y-45015528D01*
X181640875Y-44956316D01*
X181827682Y-44860011D01*
X181992886Y-44730092D01*
X182130519Y-44571256D01*
X182235604Y-44389244D01*
X182304344Y-44190633D01*
X182334254Y-43982602D01*
X182324254Y-43772670D01*
X182274704Y-43568424D01*
X182246172Y-43505947D01*
X182187401Y-43377256D01*
X182187398Y-43377251D01*
X182187397Y-43377250D01*
X182187396Y-43377247D01*
X182065486Y-43206048D01*
X182065484Y-43206046D01*
X182065479Y-43206040D01*
X181913379Y-43061014D01*
X181736574Y-42947388D01*
X181541455Y-42869274D01*
X181335086Y-42829500D01*
X181335085Y-42829500D01*
X181177575Y-42829500D01*
X181020782Y-42844472D01*
X181020778Y-42844473D01*
X180819127Y-42903683D01*
X180632313Y-42999991D01*
X180467116Y-43129905D01*
X180467112Y-43129909D01*
X180329478Y-43288746D01*
X180224398Y-43470750D01*
X180155656Y-43669365D01*
X180155656Y-43669367D01*
X180131469Y-43837597D01*
X180125746Y-43877401D01*
X144636508Y-43877401D01*
X144627420Y-43837584D01*
X144587923Y-43736949D01*
X144581755Y-43667353D01*
X144614193Y-43605470D01*
X144674938Y-43570947D01*
X144739902Y-43573157D01*
X144988337Y-43649790D01*
X144988343Y-43649792D01*
X145255101Y-43689999D01*
X145255110Y-43690000D01*
X145524890Y-43690000D01*
X145524898Y-43689999D01*
X145791656Y-43649792D01*
X145791662Y-43649790D01*
X146049461Y-43570269D01*
X146292521Y-43453218D01*
X146475150Y-43328702D01*
X145753108Y-42606661D01*
X145891948Y-42519423D01*
X146019423Y-42391948D01*
X146106661Y-42253108D01*
X146827703Y-42974151D01*
X146827704Y-42974150D01*
X146881393Y-42906828D01*
X146881400Y-42906817D01*
X147016290Y-42673181D01*
X147114851Y-42422052D01*
X147114857Y-42422033D01*
X147174886Y-42159028D01*
X147174886Y-42159026D01*
X147195047Y-41890004D01*
X147195047Y-41889995D01*
X147174886Y-41620973D01*
X147174886Y-41620971D01*
X147114857Y-41357966D01*
X147114851Y-41357947D01*
X147016290Y-41106818D01*
X147016291Y-41106818D01*
X146881397Y-40873177D01*
X146827704Y-40805847D01*
X146106660Y-41526890D01*
X146019423Y-41388052D01*
X145891948Y-41260577D01*
X145753108Y-41173338D01*
X146475150Y-40451296D01*
X146292773Y-40326954D01*
X146248471Y-40272925D01*
X146240412Y-40203522D01*
X146271155Y-40140779D01*
X146330939Y-40104617D01*
X146362625Y-40100500D01*
X198575500Y-40100500D01*
X198642539Y-40120185D01*
X198688294Y-40172989D01*
X198699500Y-40224500D01*
X198699500Y-113975500D01*
X198679815Y-114042539D01*
X198627011Y-114088294D01*
X198575500Y-114099500D01*
X99824500Y-114099500D01*
X99757461Y-114079815D01*
X99711706Y-114027011D01*
X99700500Y-113975500D01*
X99700500Y-110900005D01*
X100244556Y-110900005D01*
X100264310Y-111214004D01*
X100264311Y-111214011D01*
X100323270Y-111523083D01*
X100420497Y-111822316D01*
X100420499Y-111822321D01*
X100554461Y-112107003D01*
X100554464Y-112107009D01*
X100723051Y-112372661D01*
X100723054Y-112372665D01*
X100923606Y-112615090D01*
X100923608Y-112615092D01*
X101152968Y-112830476D01*
X101152978Y-112830484D01*
X101407504Y-113015408D01*
X101407509Y-113015410D01*
X101407516Y-113015416D01*
X101683234Y-113166994D01*
X101683239Y-113166996D01*
X101683241Y-113166997D01*
X101683242Y-113166998D01*
X101975771Y-113282818D01*
X101975774Y-113282819D01*
X102280523Y-113361065D01*
X102280527Y-113361066D01*
X102346010Y-113369338D01*
X102592670Y-113400499D01*
X102592679Y-113400499D01*
X102592682Y-113400500D01*
X102592684Y-113400500D01*
X102907316Y-113400500D01*
X102907318Y-113400500D01*
X102907321Y-113400499D01*
X102907329Y-113400499D01*
X103093593Y-113376968D01*
X103219473Y-113361066D01*
X103524225Y-113282819D01*
X103524228Y-113282818D01*
X103816757Y-113166998D01*
X103816758Y-113166997D01*
X103816756Y-113166997D01*
X103816766Y-113166994D01*
X104092484Y-113015416D01*
X104347030Y-112830478D01*
X104576390Y-112615094D01*
X104776947Y-112372663D01*
X104945537Y-112107007D01*
X105079503Y-111822315D01*
X105176731Y-111523079D01*
X105235688Y-111214015D01*
X105255444Y-110900005D01*
X193244556Y-110900005D01*
X193264310Y-111214004D01*
X193264311Y-111214011D01*
X193323270Y-111523083D01*
X193420497Y-111822316D01*
X193420499Y-111822321D01*
X193554461Y-112107003D01*
X193554464Y-112107009D01*
X193723051Y-112372661D01*
X193723054Y-112372665D01*
X193923606Y-112615090D01*
X193923608Y-112615092D01*
X194152968Y-112830476D01*
X194152978Y-112830484D01*
X194407504Y-113015408D01*
X194407509Y-113015410D01*
X194407516Y-113015416D01*
X194683234Y-113166994D01*
X194683239Y-113166996D01*
X194683241Y-113166997D01*
X194683242Y-113166998D01*
X194975771Y-113282818D01*
X194975774Y-113282819D01*
X195280523Y-113361065D01*
X195280527Y-113361066D01*
X195346010Y-113369338D01*
X195592670Y-113400499D01*
X195592679Y-113400499D01*
X195592682Y-113400500D01*
X195592684Y-113400500D01*
X195907316Y-113400500D01*
X195907318Y-113400500D01*
X195907321Y-113400499D01*
X195907329Y-113400499D01*
X196093593Y-113376968D01*
X196219473Y-113361066D01*
X196524225Y-113282819D01*
X196524228Y-113282818D01*
X196816757Y-113166998D01*
X196816758Y-113166997D01*
X196816756Y-113166997D01*
X196816766Y-113166994D01*
X197092484Y-113015416D01*
X197347030Y-112830478D01*
X197576390Y-112615094D01*
X197776947Y-112372663D01*
X197945537Y-112107007D01*
X198079503Y-111822315D01*
X198176731Y-111523079D01*
X198235688Y-111214015D01*
X198255444Y-110900000D01*
X198239916Y-110653190D01*
X198235689Y-110585995D01*
X198235688Y-110585988D01*
X198235688Y-110585985D01*
X198176731Y-110276921D01*
X198079503Y-109977685D01*
X197945537Y-109692993D01*
X197776947Y-109427337D01*
X197758983Y-109405622D01*
X197576393Y-109184909D01*
X197576391Y-109184907D01*
X197347031Y-108969523D01*
X197347021Y-108969515D01*
X197092495Y-108784591D01*
X197092488Y-108784586D01*
X197092484Y-108784584D01*
X196816766Y-108633006D01*
X196816763Y-108633004D01*
X196816758Y-108633002D01*
X196816757Y-108633001D01*
X196524228Y-108517181D01*
X196524225Y-108517180D01*
X196219476Y-108438934D01*
X196219463Y-108438932D01*
X195907329Y-108399500D01*
X195907318Y-108399500D01*
X195592682Y-108399500D01*
X195592670Y-108399500D01*
X195280536Y-108438932D01*
X195280523Y-108438934D01*
X194975774Y-108517180D01*
X194975771Y-108517181D01*
X194683242Y-108633001D01*
X194683241Y-108633002D01*
X194407516Y-108784584D01*
X194407504Y-108784591D01*
X194152978Y-108969515D01*
X194152968Y-108969523D01*
X193923608Y-109184907D01*
X193923606Y-109184909D01*
X193723054Y-109427334D01*
X193723051Y-109427338D01*
X193554464Y-109692990D01*
X193554461Y-109692996D01*
X193420499Y-109977678D01*
X193420497Y-109977683D01*
X193323270Y-110276916D01*
X193264311Y-110585988D01*
X193264310Y-110585995D01*
X193244556Y-110899994D01*
X193244556Y-110900005D01*
X105255444Y-110900005D01*
X105255444Y-110900000D01*
X105239916Y-110653190D01*
X105235689Y-110585995D01*
X105235688Y-110585988D01*
X105235688Y-110585985D01*
X105176731Y-110276921D01*
X105079503Y-109977685D01*
X104945537Y-109692993D01*
X104776947Y-109427337D01*
X104758983Y-109405622D01*
X104576393Y-109184909D01*
X104576391Y-109184907D01*
X104347031Y-108969523D01*
X104347021Y-108969515D01*
X104092495Y-108784591D01*
X104092488Y-108784586D01*
X104092484Y-108784584D01*
X103816766Y-108633006D01*
X103816763Y-108633004D01*
X103816758Y-108633002D01*
X103816757Y-108633001D01*
X103524228Y-108517181D01*
X103524225Y-108517180D01*
X103219476Y-108438934D01*
X103219463Y-108438932D01*
X102907329Y-108399500D01*
X102907318Y-108399500D01*
X102592682Y-108399500D01*
X102592670Y-108399500D01*
X102280536Y-108438932D01*
X102280523Y-108438934D01*
X101975774Y-108517180D01*
X101975771Y-108517181D01*
X101683242Y-108633001D01*
X101683241Y-108633002D01*
X101407516Y-108784584D01*
X101407504Y-108784591D01*
X101152978Y-108969515D01*
X101152968Y-108969523D01*
X100923608Y-109184907D01*
X100923606Y-109184909D01*
X100723054Y-109427334D01*
X100723051Y-109427338D01*
X100554464Y-109692990D01*
X100554461Y-109692996D01*
X100420499Y-109977678D01*
X100420497Y-109977683D01*
X100323270Y-110276916D01*
X100264311Y-110585988D01*
X100264310Y-110585995D01*
X100244556Y-110899994D01*
X100244556Y-110900005D01*
X99700500Y-110900005D01*
X99700500Y-83500002D01*
X119545034Y-83500002D01*
X119564858Y-83726599D01*
X119564860Y-83726610D01*
X119623730Y-83946317D01*
X119623734Y-83946326D01*
X119719865Y-84152481D01*
X119719866Y-84152483D01*
X119770973Y-84225471D01*
X119770973Y-84225472D01*
X120452045Y-83544399D01*
X120464835Y-83625148D01*
X120522359Y-83738045D01*
X120611955Y-83827641D01*
X120724852Y-83885165D01*
X120805599Y-83897953D01*
X120124526Y-84579025D01*
X120124526Y-84579026D01*
X120197512Y-84630131D01*
X120197516Y-84630133D01*
X120403673Y-84726265D01*
X120403682Y-84726269D01*
X120623389Y-84785139D01*
X120623400Y-84785141D01*
X120849998Y-84804966D01*
X120850002Y-84804966D01*
X121076599Y-84785141D01*
X121076610Y-84785139D01*
X121296317Y-84726269D01*
X121296331Y-84726264D01*
X121502478Y-84630136D01*
X121575472Y-84579025D01*
X120894401Y-83897953D01*
X120975148Y-83885165D01*
X121088045Y-83827641D01*
X121177641Y-83738045D01*
X121235165Y-83625148D01*
X121247953Y-83544400D01*
X121929025Y-84225472D01*
X121980136Y-84152478D01*
X122076264Y-83946331D01*
X122076269Y-83946317D01*
X122135139Y-83726610D01*
X122135141Y-83726599D01*
X122154966Y-83500002D01*
X122154966Y-83499997D01*
X122135141Y-83273400D01*
X122135139Y-83273389D01*
X122076269Y-83053682D01*
X122076265Y-83053673D01*
X121980134Y-82847518D01*
X121980130Y-82847512D01*
X121971188Y-82834740D01*
X121948861Y-82768534D01*
X121965873Y-82700767D01*
X121998454Y-82664351D01*
X122007546Y-82657546D01*
X122093796Y-82542331D01*
X122144091Y-82407483D01*
X122150500Y-82347873D01*
X122150499Y-80652128D01*
X122144091Y-80592517D01*
X122105796Y-80489844D01*
X122093797Y-80457671D01*
X122093793Y-80457664D01*
X122007547Y-80342455D01*
X122007544Y-80342452D01*
X121892335Y-80256206D01*
X121892328Y-80256202D01*
X121757482Y-80205908D01*
X121757483Y-80205908D01*
X121697883Y-80199501D01*
X121697881Y-80199500D01*
X121697873Y-80199500D01*
X121697864Y-80199500D01*
X120002129Y-80199500D01*
X120002123Y-80199501D01*
X119942516Y-80205908D01*
X119807671Y-80256202D01*
X119807664Y-80256206D01*
X119692455Y-80342452D01*
X119692452Y-80342455D01*
X119606206Y-80457664D01*
X119606202Y-80457671D01*
X119555908Y-80592517D01*
X119551497Y-80633553D01*
X119549501Y-80652123D01*
X119549500Y-80652135D01*
X119549500Y-82347870D01*
X119549501Y-82347876D01*
X119555908Y-82407483D01*
X119606202Y-82542328D01*
X119606206Y-82542335D01*
X119692452Y-82657544D01*
X119692453Y-82657544D01*
X119692454Y-82657546D01*
X119701545Y-82664351D01*
X119743416Y-82720282D01*
X119748402Y-82789974D01*
X119728813Y-82834736D01*
X119719871Y-82847507D01*
X119719868Y-82847512D01*
X119623734Y-83053673D01*
X119623730Y-83053682D01*
X119564860Y-83273389D01*
X119564858Y-83273400D01*
X119545034Y-83499997D01*
X119545034Y-83500002D01*
X99700500Y-83500002D01*
X99700500Y-77740000D01*
X101854341Y-77740000D01*
X101874936Y-77975403D01*
X101874938Y-77975413D01*
X101936094Y-78203655D01*
X101936096Y-78203659D01*
X101936097Y-78203663D01*
X101940000Y-78212032D01*
X102035965Y-78417830D01*
X102035967Y-78417834D01*
X102144281Y-78572521D01*
X102171505Y-78611401D01*
X102338599Y-78778495D01*
X102524594Y-78908730D01*
X102568218Y-78963307D01*
X102575411Y-79032806D01*
X102543889Y-79095160D01*
X102524593Y-79111880D01*
X102448626Y-79165072D01*
X102448625Y-79165072D01*
X103077466Y-79793913D01*
X103067685Y-79795320D01*
X102936900Y-79855048D01*
X102828239Y-79949202D01*
X102750507Y-80070156D01*
X102726923Y-80150476D01*
X102095072Y-79518625D01*
X102036401Y-79602419D01*
X101936570Y-79816507D01*
X101936566Y-79816516D01*
X101875432Y-80044673D01*
X101875430Y-80044684D01*
X101854843Y-80279998D01*
X101854843Y-80280001D01*
X101875430Y-80515315D01*
X101875432Y-80515326D01*
X101936566Y-80743483D01*
X101936570Y-80743492D01*
X102036400Y-80957579D01*
X102036402Y-80957583D01*
X102095072Y-81041373D01*
X102095073Y-81041373D01*
X102726923Y-80409523D01*
X102750507Y-80489844D01*
X102828239Y-80610798D01*
X102936900Y-80704952D01*
X103067685Y-80764680D01*
X103077466Y-80766086D01*
X102448625Y-81394925D01*
X102532421Y-81453599D01*
X102746507Y-81553429D01*
X102746516Y-81553433D01*
X102974673Y-81614567D01*
X102974684Y-81614569D01*
X103209998Y-81635157D01*
X103210002Y-81635157D01*
X103445315Y-81614569D01*
X103445326Y-81614567D01*
X103673483Y-81553433D01*
X103673492Y-81553429D01*
X103887578Y-81453600D01*
X103887582Y-81453598D01*
X103971373Y-81394926D01*
X103971373Y-81394925D01*
X103342533Y-80766086D01*
X103352315Y-80764680D01*
X103483100Y-80704952D01*
X103591761Y-80610798D01*
X103669493Y-80489844D01*
X103693076Y-80409524D01*
X104324925Y-81041373D01*
X104378425Y-80964968D01*
X104433002Y-80921344D01*
X104502501Y-80914151D01*
X104564855Y-80945673D01*
X104581576Y-80964969D01*
X104635073Y-81041372D01*
X105266922Y-80409523D01*
X105290507Y-80489844D01*
X105368239Y-80610798D01*
X105476900Y-80704952D01*
X105607685Y-80764680D01*
X105617466Y-80766086D01*
X104988625Y-81394925D01*
X105072421Y-81453599D01*
X105286507Y-81553429D01*
X105286516Y-81553433D01*
X105514673Y-81614567D01*
X105514684Y-81614569D01*
X105749998Y-81635157D01*
X105750002Y-81635157D01*
X105985315Y-81614569D01*
X105985326Y-81614567D01*
X106213483Y-81553433D01*
X106213492Y-81553429D01*
X106427578Y-81453600D01*
X106427582Y-81453598D01*
X106511373Y-81394926D01*
X106511373Y-81394925D01*
X105882533Y-80766086D01*
X105892315Y-80764680D01*
X106023100Y-80704952D01*
X106131761Y-80610798D01*
X106209493Y-80489844D01*
X106233076Y-80409524D01*
X106864925Y-81041373D01*
X106864926Y-81041373D01*
X106923598Y-80957582D01*
X106923600Y-80957578D01*
X107023429Y-80743492D01*
X107023433Y-80743483D01*
X107084567Y-80515326D01*
X107084569Y-80515315D01*
X107105157Y-80280001D01*
X107105157Y-80279998D01*
X107084569Y-80044684D01*
X107084567Y-80044673D01*
X107023433Y-79816516D01*
X107023429Y-79816507D01*
X106923600Y-79602423D01*
X106923599Y-79602421D01*
X106864925Y-79518626D01*
X106864925Y-79518625D01*
X106233076Y-80150475D01*
X106209493Y-80070156D01*
X106131761Y-79949202D01*
X106023100Y-79855048D01*
X105892315Y-79795320D01*
X105882533Y-79793913D01*
X106511373Y-79165073D01*
X106511373Y-79165072D01*
X106435405Y-79111880D01*
X106391780Y-79057304D01*
X106384586Y-78987805D01*
X106416108Y-78925451D01*
X106435399Y-78908734D01*
X106621401Y-78778495D01*
X106788495Y-78611401D01*
X106924035Y-78417830D01*
X107023903Y-78203663D01*
X107085063Y-77975408D01*
X107105659Y-77740000D01*
X107085063Y-77504592D01*
X107023903Y-77276337D01*
X106960328Y-77140000D01*
X128214659Y-77140000D01*
X128233975Y-77336129D01*
X128291188Y-77524733D01*
X128384086Y-77698532D01*
X128384090Y-77698539D01*
X128509116Y-77850883D01*
X128661460Y-77975909D01*
X128661467Y-77975913D01*
X128835266Y-78068811D01*
X128835269Y-78068811D01*
X128835273Y-78068814D01*
X129023868Y-78126024D01*
X129113697Y-78134871D01*
X129178485Y-78161031D01*
X129189225Y-78170593D01*
X136687604Y-85668971D01*
X136690063Y-85671578D01*
X136732674Y-85719459D01*
X136785183Y-85756226D01*
X136788057Y-85758366D01*
X136838323Y-85798111D01*
X136848483Y-85802848D01*
X136867204Y-85813657D01*
X136876388Y-85820088D01*
X136919434Y-85837189D01*
X136935933Y-85843744D01*
X136939246Y-85845173D01*
X136997327Y-85872257D01*
X137008304Y-85874523D01*
X137029018Y-85880724D01*
X137039433Y-85884862D01*
X137102835Y-85894148D01*
X137106343Y-85894766D01*
X137169145Y-85907734D01*
X137179184Y-85907441D01*
X137180347Y-85907408D01*
X137201927Y-85908664D01*
X137204687Y-85909068D01*
X137213023Y-85910289D01*
X137276850Y-85904704D01*
X137280447Y-85904495D01*
X137344514Y-85902631D01*
X137350118Y-85901810D01*
X137368094Y-85900500D01*
X158903022Y-85900500D01*
X158970061Y-85920185D01*
X158981687Y-85928647D01*
X159051460Y-85985909D01*
X159051467Y-85985913D01*
X159225266Y-86078811D01*
X159225269Y-86078811D01*
X159225273Y-86078814D01*
X159413868Y-86136024D01*
X159610000Y-86155341D01*
X159806132Y-86136024D01*
X159994727Y-86078814D01*
X160168538Y-85985910D01*
X160320883Y-85860883D01*
X160445910Y-85708538D01*
X160538814Y-85534727D01*
X160596024Y-85346132D01*
X160615341Y-85150000D01*
X160596024Y-84953868D01*
X160538814Y-84765273D01*
X160538811Y-84765269D01*
X160538811Y-84765266D01*
X160445913Y-84591467D01*
X160445909Y-84591460D01*
X160320883Y-84439116D01*
X160168539Y-84314090D01*
X160168532Y-84314086D01*
X159994733Y-84221188D01*
X159994727Y-84221186D01*
X159806132Y-84163976D01*
X159806129Y-84163975D01*
X159610000Y-84144659D01*
X159413870Y-84163975D01*
X159225266Y-84221188D01*
X159051467Y-84314086D01*
X159051460Y-84314090D01*
X158981687Y-84371353D01*
X158917377Y-84398666D01*
X158903022Y-84399500D01*
X137592229Y-84399500D01*
X137525190Y-84379815D01*
X137504548Y-84363181D01*
X130250593Y-77109225D01*
X130217108Y-77047902D01*
X130214871Y-77033697D01*
X130206024Y-76943871D01*
X130206024Y-76943870D01*
X130206024Y-76943868D01*
X130148814Y-76755273D01*
X130148811Y-76755269D01*
X130148811Y-76755266D01*
X130055913Y-76581467D01*
X130055909Y-76581460D01*
X129930883Y-76429116D01*
X129778539Y-76304090D01*
X129778532Y-76304086D01*
X129604733Y-76211188D01*
X129604727Y-76211186D01*
X129416132Y-76153976D01*
X129416129Y-76153975D01*
X129220000Y-76134659D01*
X129023870Y-76153975D01*
X128835266Y-76211188D01*
X128661467Y-76304086D01*
X128661460Y-76304090D01*
X128509116Y-76429116D01*
X128384090Y-76581460D01*
X128384086Y-76581467D01*
X128291188Y-76755266D01*
X128233975Y-76943870D01*
X128214659Y-77140000D01*
X106960328Y-77140000D01*
X106924035Y-77062171D01*
X106918425Y-77054158D01*
X106788494Y-76868597D01*
X106621402Y-76701506D01*
X106621401Y-76701505D01*
X106435405Y-76571269D01*
X106391781Y-76516692D01*
X106384588Y-76447193D01*
X106416110Y-76384839D01*
X106435405Y-76368119D01*
X106511373Y-76314925D01*
X105882533Y-75686086D01*
X105892315Y-75684680D01*
X106023100Y-75624952D01*
X106131761Y-75530798D01*
X106209493Y-75409844D01*
X106233076Y-75329524D01*
X106864925Y-75961373D01*
X106864926Y-75961373D01*
X106923598Y-75877582D01*
X106923600Y-75877578D01*
X107023429Y-75663492D01*
X107023433Y-75663483D01*
X107084567Y-75435326D01*
X107084569Y-75435315D01*
X107105157Y-75200001D01*
X107105157Y-75199998D01*
X107084569Y-74964684D01*
X107084567Y-74964673D01*
X107023433Y-74736516D01*
X107023429Y-74736507D01*
X106923600Y-74522423D01*
X106923599Y-74522421D01*
X106864925Y-74438626D01*
X106864925Y-74438625D01*
X106233076Y-75070475D01*
X106209493Y-74990156D01*
X106131761Y-74869202D01*
X106023100Y-74775048D01*
X105892315Y-74715320D01*
X105882533Y-74713913D01*
X106511373Y-74085073D01*
X106511373Y-74085072D01*
X106435405Y-74031880D01*
X106391780Y-73977304D01*
X106384586Y-73907805D01*
X106416108Y-73845451D01*
X106435399Y-73828734D01*
X106621401Y-73698495D01*
X106788495Y-73531401D01*
X106924035Y-73337830D01*
X107023903Y-73123663D01*
X107085063Y-72895408D01*
X107105659Y-72660000D01*
X107085063Y-72424592D01*
X107051680Y-72300002D01*
X123745034Y-72300002D01*
X123764858Y-72526599D01*
X123764860Y-72526610D01*
X123823730Y-72746317D01*
X123823734Y-72746326D01*
X123919865Y-72952481D01*
X123919868Y-72952485D01*
X123928812Y-72965260D01*
X123951138Y-73031467D01*
X123934125Y-73099234D01*
X123901549Y-73135645D01*
X123892456Y-73142452D01*
X123892451Y-73142457D01*
X123806206Y-73257664D01*
X123806202Y-73257671D01*
X123755908Y-73392517D01*
X123749501Y-73452116D01*
X123749501Y-73452123D01*
X123749500Y-73452135D01*
X123749500Y-75147870D01*
X123749501Y-75147876D01*
X123755908Y-75207483D01*
X123806202Y-75342328D01*
X123806206Y-75342335D01*
X123892452Y-75457544D01*
X123892455Y-75457547D01*
X124007664Y-75543793D01*
X124007671Y-75543797D01*
X124142517Y-75594091D01*
X124142516Y-75594091D01*
X124149444Y-75594835D01*
X124202127Y-75600500D01*
X125897872Y-75600499D01*
X125957483Y-75594091D01*
X126092331Y-75543796D01*
X126207546Y-75457546D01*
X126293796Y-75342331D01*
X126344091Y-75207483D01*
X126350500Y-75147873D01*
X126350499Y-73452128D01*
X126344091Y-73392517D01*
X126326682Y-73345842D01*
X126293797Y-73257671D01*
X126293793Y-73257664D01*
X126207547Y-73142456D01*
X126207548Y-73142456D01*
X126207546Y-73142454D01*
X126198449Y-73135644D01*
X126156581Y-73079710D01*
X126151599Y-73010018D01*
X126171191Y-72965253D01*
X126180134Y-72952481D01*
X126276265Y-72746326D01*
X126276269Y-72746317D01*
X126335139Y-72526610D01*
X126335141Y-72526599D01*
X126354966Y-72300002D01*
X126354966Y-72299997D01*
X126335141Y-72073400D01*
X126335139Y-72073389D01*
X126276269Y-71853682D01*
X126276265Y-71853673D01*
X126180133Y-71647516D01*
X126180131Y-71647512D01*
X126129025Y-71574526D01*
X125447953Y-72255598D01*
X125435165Y-72174852D01*
X125377641Y-72061955D01*
X125288045Y-71972359D01*
X125175148Y-71914835D01*
X125094400Y-71902046D01*
X125596446Y-71400000D01*
X131394659Y-71400000D01*
X131413975Y-71596129D01*
X131413976Y-71596132D01*
X131465823Y-71767049D01*
X131471188Y-71784733D01*
X131564086Y-71958532D01*
X131564090Y-71958539D01*
X131689116Y-72110883D01*
X131841460Y-72235909D01*
X131841467Y-72235913D01*
X132015266Y-72328811D01*
X132015269Y-72328811D01*
X132015273Y-72328814D01*
X132203868Y-72386024D01*
X132400000Y-72405341D01*
X132596132Y-72386024D01*
X132784727Y-72328814D01*
X132838631Y-72300002D01*
X132958532Y-72235913D01*
X132958538Y-72235910D01*
X133110883Y-72110883D01*
X133235910Y-71958538D01*
X133322643Y-71796270D01*
X133344314Y-71767052D01*
X136910638Y-68200727D01*
X136924267Y-68188950D01*
X136943530Y-68174610D01*
X136943532Y-68174606D01*
X136943534Y-68174606D01*
X136967887Y-68145582D01*
X136977113Y-68134585D01*
X136980767Y-68130599D01*
X136983335Y-68128032D01*
X136986590Y-68124777D01*
X137006927Y-68099055D01*
X137056302Y-68040214D01*
X137056304Y-68040209D01*
X137060272Y-68034179D01*
X137060323Y-68034212D01*
X137064369Y-68027860D01*
X137064317Y-68027828D01*
X137068109Y-68021679D01*
X137068111Y-68021677D01*
X137100569Y-67952069D01*
X137135040Y-67883433D01*
X137135043Y-67883417D01*
X137137510Y-67876644D01*
X137137568Y-67876665D01*
X137140043Y-67869546D01*
X137139985Y-67869527D01*
X137142256Y-67862672D01*
X137144770Y-67850499D01*
X137157784Y-67787467D01*
X137175500Y-67712721D01*
X137175500Y-67712720D01*
X137176339Y-67705548D01*
X137176397Y-67705554D01*
X137177164Y-67698056D01*
X137177104Y-67698051D01*
X137177733Y-67690860D01*
X137176827Y-67659733D01*
X137175500Y-67614102D01*
X137175500Y-66061222D01*
X137195185Y-65994183D01*
X137247989Y-65948428D01*
X137317147Y-65938484D01*
X137380703Y-65967509D01*
X137395353Y-65982557D01*
X137439116Y-66035883D01*
X137591460Y-66160909D01*
X137591467Y-66160913D01*
X137765266Y-66253811D01*
X137765269Y-66253811D01*
X137765273Y-66253814D01*
X137953868Y-66311024D01*
X138150000Y-66330341D01*
X138201560Y-66325262D01*
X138270203Y-66338280D01*
X138301394Y-66360984D01*
X139774197Y-67833788D01*
X139784022Y-67846051D01*
X139784243Y-67845869D01*
X139789214Y-67851878D01*
X139800709Y-67862672D01*
X139839635Y-67899226D01*
X139860529Y-67920120D01*
X139866011Y-67924373D01*
X139870443Y-67928157D01*
X139904418Y-67960062D01*
X139921976Y-67969714D01*
X139938233Y-67980393D01*
X139954064Y-67992673D01*
X139973737Y-68001186D01*
X139996833Y-68011182D01*
X140002077Y-68013750D01*
X140042908Y-68036197D01*
X140055523Y-68039435D01*
X140062305Y-68041177D01*
X140080719Y-68047481D01*
X140099104Y-68055438D01*
X140145157Y-68062732D01*
X140150826Y-68063906D01*
X140195981Y-68075500D01*
X140216016Y-68075500D01*
X140235413Y-68077026D01*
X140255196Y-68080160D01*
X140301584Y-68075775D01*
X140307422Y-68075500D01*
X141358984Y-68075500D01*
X141374604Y-68077224D01*
X141374631Y-68076939D01*
X141382387Y-68077671D01*
X141382394Y-68077673D01*
X141451541Y-68075500D01*
X141481077Y-68075500D01*
X141487955Y-68074630D01*
X141493768Y-68074172D01*
X141540354Y-68072709D01*
X141559596Y-68067117D01*
X141578639Y-68063174D01*
X141598519Y-68060664D01*
X141641849Y-68043507D01*
X141647373Y-68041617D01*
X141652216Y-68040210D01*
X141692117Y-68028618D01*
X141709356Y-68018422D01*
X141726830Y-68009862D01*
X141745454Y-68002488D01*
X141745454Y-68002487D01*
X141745459Y-68002486D01*
X141783176Y-67975082D01*
X141788032Y-67971892D01*
X141828147Y-67948170D01*
X141842316Y-67933999D01*
X141857106Y-67921368D01*
X141873314Y-67909594D01*
X141881891Y-67899226D01*
X141885006Y-67895461D01*
X141942906Y-67856352D01*
X141980551Y-67850500D01*
X142917257Y-67850500D01*
X142932877Y-67852224D01*
X142932904Y-67851939D01*
X142940660Y-67852671D01*
X142940667Y-67852673D01*
X143009814Y-67850500D01*
X143039350Y-67850500D01*
X143046228Y-67849630D01*
X143052041Y-67849172D01*
X143098627Y-67847709D01*
X143117869Y-67842117D01*
X143136912Y-67838174D01*
X143156792Y-67835664D01*
X143200122Y-67818507D01*
X143205646Y-67816617D01*
X143209807Y-67815408D01*
X143250390Y-67803618D01*
X143267629Y-67793422D01*
X143285103Y-67784862D01*
X143303724Y-67777489D01*
X143303722Y-67777489D01*
X143303732Y-67777486D01*
X143303739Y-67777480D01*
X143308405Y-67774916D01*
X143376633Y-67759863D01*
X143442169Y-67784087D01*
X143446817Y-67787720D01*
X143566460Y-67885909D01*
X143566467Y-67885913D01*
X143740266Y-67978811D01*
X143740269Y-67978811D01*
X143740273Y-67978814D01*
X143928868Y-68036024D01*
X144125000Y-68055341D01*
X144321132Y-68036024D01*
X144509727Y-67978814D01*
X144526758Y-67969711D01*
X144653469Y-67901982D01*
X144683538Y-67885910D01*
X144835883Y-67760883D01*
X144960910Y-67608538D01*
X145034357Y-67471129D01*
X145053811Y-67434733D01*
X145053811Y-67434732D01*
X145053814Y-67434727D01*
X145111024Y-67246132D01*
X145130341Y-67050000D01*
X145111024Y-66853868D01*
X145053814Y-66665273D01*
X145053811Y-66665269D01*
X145053811Y-66665266D01*
X144960913Y-66491467D01*
X144960909Y-66491460D01*
X144835883Y-66339116D01*
X144678829Y-66210225D01*
X144680573Y-66208099D01*
X144643368Y-66163517D01*
X144634709Y-66094186D01*
X144661244Y-66035443D01*
X144727533Y-65954669D01*
X144785276Y-65915337D01*
X144855120Y-65913466D01*
X144911065Y-65945655D01*
X146089015Y-67123605D01*
X146122500Y-67184928D01*
X146124737Y-67223439D01*
X146119659Y-67274999D01*
X146138975Y-67471129D01*
X146196188Y-67659733D01*
X146289086Y-67833532D01*
X146289090Y-67833539D01*
X146414116Y-67985883D01*
X146566460Y-68110909D01*
X146566467Y-68110913D01*
X146740266Y-68203811D01*
X146740269Y-68203811D01*
X146740273Y-68203814D01*
X146909817Y-68255245D01*
X146968254Y-68293542D01*
X146996711Y-68357354D01*
X146992481Y-68409900D01*
X146963975Y-68503869D01*
X146944659Y-68700000D01*
X146963975Y-68896129D01*
X147021188Y-69084733D01*
X147114086Y-69258532D01*
X147114090Y-69258539D01*
X147239116Y-69410883D01*
X147391460Y-69535909D01*
X147391467Y-69535913D01*
X147565266Y-69628811D01*
X147565269Y-69628811D01*
X147565273Y-69628814D01*
X147753868Y-69686024D01*
X147950000Y-69705341D01*
X148146132Y-69686024D01*
X148334727Y-69628814D01*
X148508538Y-69535910D01*
X148660883Y-69410883D01*
X148690332Y-69375000D01*
X151394659Y-69375000D01*
X151413975Y-69571129D01*
X151471188Y-69759733D01*
X151564086Y-69933532D01*
X151564090Y-69933539D01*
X151689116Y-70085883D01*
X151841460Y-70210909D01*
X151841467Y-70210913D01*
X152015266Y-70303811D01*
X152015269Y-70303811D01*
X152015273Y-70303814D01*
X152203868Y-70361024D01*
X152400000Y-70380341D01*
X152596132Y-70361024D01*
X152784727Y-70303814D01*
X152958538Y-70210910D01*
X153110883Y-70085883D01*
X153235910Y-69933538D01*
X153328814Y-69759727D01*
X153386024Y-69571132D01*
X153405341Y-69375000D01*
X153400262Y-69323437D01*
X153413280Y-69254794D01*
X153435981Y-69223607D01*
X154383786Y-68275802D01*
X154396048Y-68265980D01*
X154395865Y-68265759D01*
X154401867Y-68260792D01*
X154401877Y-68260786D01*
X154449241Y-68210348D01*
X154470120Y-68189470D01*
X154474376Y-68183983D01*
X154478150Y-68179563D01*
X154510062Y-68145582D01*
X154519714Y-68128023D01*
X154530389Y-68111772D01*
X154542674Y-68095936D01*
X154561186Y-68053152D01*
X154563742Y-68047935D01*
X154581383Y-68015848D01*
X154586194Y-68007098D01*
X154586194Y-68007097D01*
X154586197Y-68007092D01*
X154591180Y-67987680D01*
X154597477Y-67969291D01*
X154605438Y-67950895D01*
X154612729Y-67904853D01*
X154613908Y-67899162D01*
X154625500Y-67854019D01*
X154625500Y-67833983D01*
X154627027Y-67814582D01*
X154630160Y-67794804D01*
X154625775Y-67748415D01*
X154625500Y-67742577D01*
X154625500Y-61839602D01*
X154645185Y-61772563D01*
X154670837Y-61743748D01*
X154710882Y-61710884D01*
X154729741Y-61687905D01*
X154835910Y-61558538D01*
X154887777Y-61461501D01*
X154928811Y-61384733D01*
X154928811Y-61384732D01*
X154928814Y-61384727D01*
X154986024Y-61196132D01*
X155005341Y-61000000D01*
X154986024Y-60803868D01*
X154928814Y-60615273D01*
X154928811Y-60615269D01*
X154928811Y-60615266D01*
X154835913Y-60441467D01*
X154835909Y-60441460D01*
X154710883Y-60289116D01*
X154558539Y-60164090D01*
X154558532Y-60164086D01*
X154384733Y-60071188D01*
X154384727Y-60071186D01*
X154258997Y-60033046D01*
X154196129Y-60013975D01*
X154000000Y-59994659D01*
X153803870Y-60013975D01*
X153615266Y-60071188D01*
X153441467Y-60164086D01*
X153441460Y-60164090D01*
X153289116Y-60289116D01*
X153164090Y-60441460D01*
X153164086Y-60441467D01*
X153071188Y-60615266D01*
X153013975Y-60803870D01*
X152994659Y-61000000D01*
X153013975Y-61196129D01*
X153013976Y-61196132D01*
X153054181Y-61328671D01*
X153071188Y-61384733D01*
X153164086Y-61558532D01*
X153164090Y-61558539D01*
X153289117Y-61710884D01*
X153329163Y-61743748D01*
X153368499Y-61801493D01*
X153374500Y-61839602D01*
X153374500Y-67464546D01*
X153354815Y-67531585D01*
X153338181Y-67552227D01*
X152551393Y-68339014D01*
X152490070Y-68372499D01*
X152451560Y-68374736D01*
X152400002Y-68369659D01*
X152400000Y-68369659D01*
X152203870Y-68388975D01*
X152015266Y-68446188D01*
X151841467Y-68539086D01*
X151841460Y-68539090D01*
X151689116Y-68664116D01*
X151564090Y-68816460D01*
X151564086Y-68816467D01*
X151471188Y-68990266D01*
X151413975Y-69178870D01*
X151394659Y-69375000D01*
X148690332Y-69375000D01*
X148785910Y-69258538D01*
X148878814Y-69084727D01*
X148936024Y-68896132D01*
X148955341Y-68700000D01*
X148950262Y-68648439D01*
X148963280Y-68579795D01*
X148985986Y-68548602D01*
X148995120Y-68539470D01*
X148999370Y-68533989D01*
X149003151Y-68529561D01*
X149035062Y-68495582D01*
X149044713Y-68478024D01*
X149055396Y-68461761D01*
X149067673Y-68445936D01*
X149086183Y-68403158D01*
X149088743Y-68397932D01*
X149111197Y-68357092D01*
X149116178Y-68337687D01*
X149122482Y-68319279D01*
X149124216Y-68315273D01*
X149130438Y-68300895D01*
X149137729Y-68254853D01*
X149138908Y-68249162D01*
X149150500Y-68204019D01*
X149150500Y-68183983D01*
X149152027Y-68164582D01*
X149155160Y-68144804D01*
X149150775Y-68098415D01*
X149150500Y-68092577D01*
X149150500Y-65868268D01*
X149152224Y-65852654D01*
X149151938Y-65852627D01*
X149152672Y-65844864D01*
X149150500Y-65775733D01*
X149150500Y-65746182D01*
X149150500Y-65746181D01*
X149149629Y-65739290D01*
X149149172Y-65733476D01*
X149148680Y-65717830D01*
X149147709Y-65686903D01*
X149142120Y-65667668D01*
X149138174Y-65648615D01*
X149135664Y-65628739D01*
X149118501Y-65585390D01*
X149116614Y-65579877D01*
X149103617Y-65535141D01*
X149103616Y-65535139D01*
X149093421Y-65517900D01*
X149084860Y-65500424D01*
X149077486Y-65481800D01*
X149077486Y-65481798D01*
X149067474Y-65468019D01*
X149050083Y-65444081D01*
X149046900Y-65439236D01*
X149023170Y-65399110D01*
X149023165Y-65399104D01*
X149009005Y-65384944D01*
X148996370Y-65370151D01*
X148984593Y-65353943D01*
X148948693Y-65324244D01*
X148944381Y-65320321D01*
X148925953Y-65301893D01*
X148892468Y-65240570D01*
X148890231Y-65202061D01*
X148895310Y-65150500D01*
X148875993Y-64954368D01*
X148818783Y-64765773D01*
X148818780Y-64765769D01*
X148818780Y-64765766D01*
X148725882Y-64591967D01*
X148725878Y-64591960D01*
X148600852Y-64439616D01*
X148448508Y-64314590D01*
X148448501Y-64314586D01*
X148274702Y-64221688D01*
X148274696Y-64221686D01*
X148086101Y-64164476D01*
X148086098Y-64164475D01*
X147889969Y-64145159D01*
X147693839Y-64164475D01*
X147505235Y-64221688D01*
X147331436Y-64314586D01*
X147331429Y-64314590D01*
X147179085Y-64439616D01*
X147054059Y-64591960D01*
X147054055Y-64591967D01*
X146961157Y-64765766D01*
X146903944Y-64954370D01*
X146884628Y-65150500D01*
X146903944Y-65346629D01*
X146903945Y-65346632D01*
X146953351Y-65509502D01*
X146961157Y-65535233D01*
X147054055Y-65709032D01*
X147054059Y-65709039D01*
X147179085Y-65861383D01*
X147331429Y-65986409D01*
X147331436Y-65986413D01*
X147505235Y-66079311D01*
X147505238Y-66079311D01*
X147505242Y-66079314D01*
X147693837Y-66136524D01*
X147787656Y-66145764D01*
X147852440Y-66171923D01*
X147892800Y-66228957D01*
X147899500Y-66269166D01*
X147899500Y-66354149D01*
X147879815Y-66421188D01*
X147827011Y-66466943D01*
X147757853Y-66476887D01*
X147696836Y-66450003D01*
X147683538Y-66439090D01*
X147683532Y-66439086D01*
X147509733Y-66346188D01*
X147509727Y-66346186D01*
X147321132Y-66288976D01*
X147321129Y-66288975D01*
X147125000Y-66269659D01*
X147073439Y-66274737D01*
X147004793Y-66261718D01*
X146973605Y-66239015D01*
X144850803Y-64116212D01*
X144840980Y-64103950D01*
X144840759Y-64104134D01*
X144835786Y-64098123D01*
X144785364Y-64050773D01*
X144774919Y-64040328D01*
X144764475Y-64029883D01*
X144758986Y-64025625D01*
X144754561Y-64021847D01*
X144720582Y-63989938D01*
X144720580Y-63989936D01*
X144720577Y-63989935D01*
X144703029Y-63980288D01*
X144686763Y-63969604D01*
X144670933Y-63957325D01*
X144628168Y-63938818D01*
X144622922Y-63936248D01*
X144582093Y-63913803D01*
X144582092Y-63913802D01*
X144562693Y-63908822D01*
X144544281Y-63902518D01*
X144525898Y-63894562D01*
X144525892Y-63894560D01*
X144479874Y-63887272D01*
X144474152Y-63886087D01*
X144429021Y-63874500D01*
X144429019Y-63874500D01*
X144408984Y-63874500D01*
X144389586Y-63872973D01*
X144380759Y-63871575D01*
X144369805Y-63869840D01*
X144369804Y-63869840D01*
X144323416Y-63874225D01*
X144317578Y-63874500D01*
X143532737Y-63874500D01*
X143517120Y-63872776D01*
X143517093Y-63873062D01*
X143509331Y-63872327D01*
X143440203Y-63874500D01*
X143410650Y-63874500D01*
X143410559Y-63874511D01*
X143402797Y-63875000D01*
X141225002Y-63875000D01*
X141213535Y-63886465D01*
X141205313Y-63914466D01*
X141152507Y-63960219D01*
X141113154Y-63970825D01*
X140928870Y-63988975D01*
X140740266Y-64046188D01*
X140566467Y-64139086D01*
X140566460Y-64139090D01*
X140414116Y-64264116D01*
X140289090Y-64416460D01*
X140289086Y-64416467D01*
X140196188Y-64590266D01*
X140138975Y-64778870D01*
X140119659Y-64975000D01*
X140138975Y-65171129D01*
X140138976Y-65171132D01*
X140194431Y-65353943D01*
X140196188Y-65359733D01*
X140289086Y-65533532D01*
X140289090Y-65533539D01*
X140405204Y-65675023D01*
X140414117Y-65685883D01*
X140423869Y-65693886D01*
X140463204Y-65751631D01*
X140465076Y-65821476D01*
X140428890Y-65881245D01*
X140423873Y-65885592D01*
X140389115Y-65914118D01*
X140264090Y-66066460D01*
X140264086Y-66066467D01*
X140172908Y-66237050D01*
X140123946Y-66286894D01*
X140055808Y-66302355D01*
X139990129Y-66278523D01*
X139975869Y-66266278D01*
X139185984Y-65476393D01*
X139152499Y-65415070D01*
X139150262Y-65376561D01*
X139155341Y-65325000D01*
X139136024Y-65128868D01*
X139078814Y-64940273D01*
X139078811Y-64940269D01*
X139078811Y-64940266D01*
X138985913Y-64766467D01*
X138985909Y-64766460D01*
X138860883Y-64614116D01*
X138708539Y-64489090D01*
X138708532Y-64489086D01*
X138534733Y-64396188D01*
X138534727Y-64396186D01*
X138346132Y-64338976D01*
X138346129Y-64338975D01*
X138150000Y-64319659D01*
X137953870Y-64338975D01*
X137765266Y-64396188D01*
X137591467Y-64489086D01*
X137591460Y-64489090D01*
X137439116Y-64614116D01*
X137395353Y-64667442D01*
X137337607Y-64706777D01*
X137267762Y-64708647D01*
X137207994Y-64672459D01*
X137177278Y-64609703D01*
X137175500Y-64588777D01*
X137175500Y-62599500D01*
X137195185Y-62532461D01*
X137247989Y-62486706D01*
X137299500Y-62475500D01*
X139686295Y-62475500D01*
X139704265Y-62476809D01*
X139728023Y-62480289D01*
X139780068Y-62475735D01*
X139785470Y-62475500D01*
X139793704Y-62475500D01*
X139793709Y-62475500D01*
X139805327Y-62474141D01*
X139826276Y-62471693D01*
X139839028Y-62470577D01*
X139902797Y-62464999D01*
X139902805Y-62464996D01*
X139909866Y-62463539D01*
X139909878Y-62463598D01*
X139917243Y-62461965D01*
X139917229Y-62461906D01*
X139924246Y-62460241D01*
X139924255Y-62460241D01*
X139996423Y-62433974D01*
X140069334Y-62409814D01*
X140069343Y-62409807D01*
X140075882Y-62406760D01*
X140075908Y-62406816D01*
X140082690Y-62403532D01*
X140082663Y-62403478D01*
X140089106Y-62400240D01*
X140089117Y-62400237D01*
X140153283Y-62358034D01*
X140218656Y-62317712D01*
X140218662Y-62317705D01*
X140224325Y-62313229D01*
X140224363Y-62313277D01*
X140230195Y-62308526D01*
X140230156Y-62308479D01*
X140235694Y-62303831D01*
X140235693Y-62303831D01*
X140235696Y-62303830D01*
X140288386Y-62247980D01*
X140681029Y-61855337D01*
X141074548Y-61461819D01*
X141135871Y-61428334D01*
X141162229Y-61425500D01*
X141288132Y-61425500D01*
X141355171Y-61445185D01*
X141376346Y-61464383D01*
X141377181Y-61463549D01*
X141382288Y-61468656D01*
X141506344Y-61592712D01*
X141655666Y-61684814D01*
X141665001Y-61687907D01*
X141722445Y-61727675D01*
X141749271Y-61792190D01*
X141750000Y-61805613D01*
X141750000Y-62494912D01*
X141730315Y-62561951D01*
X141677511Y-62607706D01*
X141665007Y-62612617D01*
X141655882Y-62615640D01*
X141655875Y-62615643D01*
X141506654Y-62707684D01*
X141382684Y-62831654D01*
X141290643Y-62980875D01*
X141290641Y-62980880D01*
X141235494Y-63147302D01*
X141235493Y-63147309D01*
X141225000Y-63250013D01*
X141225000Y-63375000D01*
X144024999Y-63375000D01*
X144024999Y-63250028D01*
X144024998Y-63250013D01*
X144014505Y-63147302D01*
X143959358Y-62980880D01*
X143959356Y-62980875D01*
X143867315Y-62831654D01*
X143743344Y-62707683D01*
X143743340Y-62707680D01*
X143608903Y-62624758D01*
X143562178Y-62572810D01*
X143550000Y-62519220D01*
X143550000Y-61781366D01*
X143569685Y-61714327D01*
X143608904Y-61675827D01*
X143620506Y-61668671D01*
X143743656Y-61592712D01*
X143867712Y-61468656D01*
X143867712Y-61468655D01*
X143872819Y-61463549D01*
X143874705Y-61465435D01*
X143921625Y-61432212D01*
X143961868Y-61425500D01*
X144087770Y-61425500D01*
X144154809Y-61445185D01*
X144175451Y-61461819D01*
X144469405Y-61755773D01*
X144502890Y-61817096D01*
X144505127Y-61831298D01*
X144513975Y-61921129D01*
X144513976Y-61921132D01*
X144569036Y-62102641D01*
X144571188Y-62109733D01*
X144664086Y-62283532D01*
X144664090Y-62283539D01*
X144789116Y-62435883D01*
X144941460Y-62560909D01*
X144941467Y-62560913D01*
X145115266Y-62653811D01*
X145115269Y-62653811D01*
X145115273Y-62653814D01*
X145303868Y-62711024D01*
X145500000Y-62730341D01*
X145696132Y-62711024D01*
X145884727Y-62653814D01*
X145952756Y-62617452D01*
X145986341Y-62599500D01*
X146058538Y-62560910D01*
X146210883Y-62435883D01*
X146335910Y-62283538D01*
X146428814Y-62109727D01*
X146486024Y-61921132D01*
X146486024Y-61921126D01*
X146486026Y-61921122D01*
X146487213Y-61915157D01*
X146488930Y-61915498D01*
X146511969Y-61858415D01*
X146568997Y-61818047D01*
X146593686Y-61812319D01*
X146606792Y-61810664D01*
X146650122Y-61793507D01*
X146655646Y-61791617D01*
X146659396Y-61790527D01*
X146700390Y-61778618D01*
X146717629Y-61768422D01*
X146735103Y-61759862D01*
X146753727Y-61752488D01*
X146753727Y-61752487D01*
X146753732Y-61752486D01*
X146791449Y-61725082D01*
X146796305Y-61721892D01*
X146836420Y-61698170D01*
X146850589Y-61683999D01*
X146865379Y-61671368D01*
X146881587Y-61659594D01*
X146911299Y-61623676D01*
X146915212Y-61619376D01*
X148433786Y-60100802D01*
X148446048Y-60090980D01*
X148445865Y-60090759D01*
X148451867Y-60085792D01*
X148451877Y-60085786D01*
X148499241Y-60035348D01*
X148520120Y-60014470D01*
X148524373Y-60008986D01*
X148528150Y-60004563D01*
X148560062Y-59970582D01*
X148569714Y-59953023D01*
X148580389Y-59936772D01*
X148592674Y-59920936D01*
X148611186Y-59878152D01*
X148613742Y-59872935D01*
X148636197Y-59832092D01*
X148641180Y-59812680D01*
X148647477Y-59794291D01*
X148655438Y-59775895D01*
X148662729Y-59729853D01*
X148663908Y-59724162D01*
X148675500Y-59679019D01*
X148675500Y-59658983D01*
X148677027Y-59639582D01*
X148680160Y-59619804D01*
X148675775Y-59573415D01*
X148675500Y-59567577D01*
X148675500Y-58139602D01*
X148695185Y-58072563D01*
X148720837Y-58043748D01*
X148760882Y-58010884D01*
X148778831Y-57989014D01*
X148885910Y-57858538D01*
X148978814Y-57684727D01*
X149036024Y-57496132D01*
X149055341Y-57300000D01*
X149036024Y-57103868D01*
X148978814Y-56915273D01*
X148978811Y-56915269D01*
X148978811Y-56915266D01*
X148885913Y-56741467D01*
X148885909Y-56741460D01*
X148760883Y-56589116D01*
X148608539Y-56464090D01*
X148608532Y-56464086D01*
X148434733Y-56371188D01*
X148434727Y-56371186D01*
X148246132Y-56313976D01*
X148246129Y-56313975D01*
X148050000Y-56294659D01*
X147853870Y-56313975D01*
X147665266Y-56371188D01*
X147491467Y-56464086D01*
X147491460Y-56464090D01*
X147339116Y-56589116D01*
X147214090Y-56741460D01*
X147214086Y-56741467D01*
X147121188Y-56915266D01*
X147063975Y-57103870D01*
X147049280Y-57253079D01*
X147023119Y-57317866D01*
X146966085Y-57358225D01*
X146896285Y-57361342D01*
X146838196Y-57328606D01*
X146424863Y-56915273D01*
X145835239Y-56325648D01*
X145801754Y-56264325D01*
X145798981Y-56241861D01*
X145797709Y-56201372D01*
X145792122Y-56182144D01*
X145788174Y-56163084D01*
X145785663Y-56143204D01*
X145768512Y-56099887D01*
X145766619Y-56094358D01*
X145753618Y-56049609D01*
X145753616Y-56049606D01*
X145743423Y-56032371D01*
X145734861Y-56014894D01*
X145727487Y-55996270D01*
X145727486Y-55996268D01*
X145700079Y-55958545D01*
X145696888Y-55953686D01*
X145673172Y-55913583D01*
X145673165Y-55913574D01*
X145659006Y-55899415D01*
X145646368Y-55884619D01*
X145634594Y-55868413D01*
X145598688Y-55838709D01*
X145594376Y-55834786D01*
X145031053Y-55271462D01*
X144997568Y-55210139D01*
X144995331Y-55171629D01*
X145005341Y-55070000D01*
X144986024Y-54873868D01*
X144928814Y-54685273D01*
X144928811Y-54685269D01*
X144928811Y-54685266D01*
X144835913Y-54511467D01*
X144835909Y-54511460D01*
X144710883Y-54359116D01*
X144558539Y-54234090D01*
X144558532Y-54234086D01*
X144384733Y-54141188D01*
X144384727Y-54141186D01*
X144196132Y-54083976D01*
X144196129Y-54083975D01*
X144000000Y-54064659D01*
X143803870Y-54083975D01*
X143615266Y-54141188D01*
X143441467Y-54234086D01*
X143441460Y-54234090D01*
X143289116Y-54359116D01*
X143164090Y-54511460D01*
X143164086Y-54511467D01*
X143071188Y-54685266D01*
X143013975Y-54873870D01*
X142994659Y-55070000D01*
X143013975Y-55266129D01*
X143071188Y-55454733D01*
X143164086Y-55628532D01*
X143164090Y-55628539D01*
X143289116Y-55780883D01*
X143441460Y-55905909D01*
X143441467Y-55905913D01*
X143615266Y-55998811D01*
X143615269Y-55998811D01*
X143615273Y-55998814D01*
X143803868Y-56056024D01*
X144000000Y-56075341D01*
X144001489Y-56075194D01*
X144002263Y-56075341D01*
X144006093Y-56075341D01*
X144006093Y-56076067D01*
X144070134Y-56088211D01*
X144101326Y-56110916D01*
X144514760Y-56524351D01*
X144548245Y-56585674D01*
X144551018Y-56608136D01*
X144552290Y-56648624D01*
X144552291Y-56648627D01*
X144557880Y-56667867D01*
X144561824Y-56686911D01*
X144564336Y-56706792D01*
X144581490Y-56750119D01*
X144583382Y-56755647D01*
X144596381Y-56800388D01*
X144606580Y-56817634D01*
X144615138Y-56835103D01*
X144622514Y-56853732D01*
X144649898Y-56891423D01*
X144653106Y-56896307D01*
X144676827Y-56936416D01*
X144676833Y-56936424D01*
X144690990Y-56950580D01*
X144703628Y-56965376D01*
X144715405Y-56981586D01*
X144715406Y-56981587D01*
X144751309Y-57011288D01*
X144755620Y-57015210D01*
X145836595Y-58096186D01*
X146189014Y-58448605D01*
X146222499Y-58509928D01*
X146224736Y-58548437D01*
X146219659Y-58599997D01*
X146219659Y-58599999D01*
X146238975Y-58796129D01*
X146238976Y-58796132D01*
X146275057Y-58915076D01*
X146296188Y-58984733D01*
X146389086Y-59158532D01*
X146389090Y-59158539D01*
X146514116Y-59310883D01*
X146666460Y-59435909D01*
X146666467Y-59435913D01*
X146840271Y-59528813D01*
X146840273Y-59528814D01*
X146882010Y-59541475D01*
X146946380Y-59561002D01*
X147004818Y-59599299D01*
X147033275Y-59663112D01*
X147022714Y-59732179D01*
X146998065Y-59767343D01*
X146227228Y-60538181D01*
X146165905Y-60571666D01*
X146139547Y-60574500D01*
X146107738Y-60574500D01*
X146092121Y-60572776D01*
X146092094Y-60573062D01*
X146084332Y-60572327D01*
X146015204Y-60574500D01*
X145985650Y-60574500D01*
X145984929Y-60574590D01*
X145978757Y-60575369D01*
X145972945Y-60575826D01*
X145926373Y-60577290D01*
X145926372Y-60577290D01*
X145907129Y-60582881D01*
X145888079Y-60586825D01*
X145868211Y-60589334D01*
X145868209Y-60589335D01*
X145824884Y-60606488D01*
X145819357Y-60608380D01*
X145774610Y-60621381D01*
X145774609Y-60621382D01*
X145757367Y-60631579D01*
X145739899Y-60640137D01*
X145721269Y-60647513D01*
X145721266Y-60647515D01*
X145683575Y-60674898D01*
X145678691Y-60678107D01*
X145658289Y-60690172D01*
X145590564Y-60707353D01*
X145524302Y-60685193D01*
X145507488Y-60671120D01*
X145025729Y-60189361D01*
X145013949Y-60175730D01*
X145005280Y-60164086D01*
X144999612Y-60156472D01*
X144994303Y-60152017D01*
X144959587Y-60122886D01*
X144955612Y-60119244D01*
X144952690Y-60116322D01*
X144949780Y-60113411D01*
X144924040Y-60093059D01*
X144865209Y-60043694D01*
X144859180Y-60039729D01*
X144859212Y-60039680D01*
X144852853Y-60035628D01*
X144852822Y-60035679D01*
X144846680Y-60031891D01*
X144846678Y-60031890D01*
X144846677Y-60031889D01*
X144788052Y-60004551D01*
X144777058Y-59999424D01*
X144719627Y-59970582D01*
X144708433Y-59964960D01*
X144708431Y-59964959D01*
X144708430Y-59964959D01*
X144701645Y-59962489D01*
X144701665Y-59962433D01*
X144694549Y-59959959D01*
X144694531Y-59960015D01*
X144687671Y-59957742D01*
X144659841Y-59951996D01*
X144612434Y-59942207D01*
X144563472Y-59930603D01*
X144537719Y-59924499D01*
X144530547Y-59923661D01*
X144530553Y-59923601D01*
X144523055Y-59922835D01*
X144523050Y-59922895D01*
X144515860Y-59922265D01*
X144439083Y-59924500D01*
X143961868Y-59924500D01*
X143894829Y-59904815D01*
X143873653Y-59885616D01*
X143872819Y-59886451D01*
X143809208Y-59822840D01*
X143775723Y-59761517D01*
X143780707Y-59691825D01*
X143801036Y-59656494D01*
X143814916Y-59639582D01*
X143860910Y-59583538D01*
X143939819Y-59435910D01*
X143953811Y-59409733D01*
X143953811Y-59409732D01*
X143953814Y-59409727D01*
X144011024Y-59221132D01*
X144030341Y-59025000D01*
X144011024Y-58828868D01*
X143953814Y-58640273D01*
X143953811Y-58640269D01*
X143953811Y-58640266D01*
X143860913Y-58466467D01*
X143860909Y-58466460D01*
X143735883Y-58314116D01*
X143583539Y-58189090D01*
X143583532Y-58189086D01*
X143409733Y-58096188D01*
X143409727Y-58096186D01*
X143221132Y-58038976D01*
X143221129Y-58038975D01*
X143025000Y-58019659D01*
X143024997Y-58019659D01*
X142973437Y-58024736D01*
X142904791Y-58011716D01*
X142873605Y-57989014D01*
X142335984Y-57451393D01*
X142302499Y-57390070D01*
X142300262Y-57351561D01*
X142305341Y-57300000D01*
X142286024Y-57103868D01*
X142228814Y-56915273D01*
X142228811Y-56915269D01*
X142228811Y-56915266D01*
X142135913Y-56741467D01*
X142135909Y-56741460D01*
X142010883Y-56589116D01*
X141858539Y-56464090D01*
X141858532Y-56464086D01*
X141684733Y-56371188D01*
X141684727Y-56371186D01*
X141496132Y-56313976D01*
X141496129Y-56313975D01*
X141300000Y-56294659D01*
X141103870Y-56313975D01*
X140915266Y-56371188D01*
X140741467Y-56464086D01*
X140741460Y-56464090D01*
X140589116Y-56589116D01*
X140464090Y-56741460D01*
X140464086Y-56741467D01*
X140371188Y-56915266D01*
X140313975Y-57103870D01*
X140294659Y-57300000D01*
X140313975Y-57496129D01*
X140371188Y-57684733D01*
X140464086Y-57858532D01*
X140464090Y-57858539D01*
X140589116Y-58010883D01*
X140741460Y-58135909D01*
X140741467Y-58135913D01*
X140915266Y-58228811D01*
X140915269Y-58228811D01*
X140915273Y-58228814D01*
X141103868Y-58286024D01*
X141300000Y-58305341D01*
X141351560Y-58300262D01*
X141420203Y-58313280D01*
X141451394Y-58335984D01*
X141989014Y-58873605D01*
X142022499Y-58934928D01*
X142024736Y-58973437D01*
X142019659Y-59024997D01*
X142019659Y-59024999D01*
X142038975Y-59221129D01*
X142096188Y-59409733D01*
X142100098Y-59417047D01*
X142114340Y-59485450D01*
X142089340Y-59550694D01*
X142033035Y-59592064D01*
X141990742Y-59599500D01*
X141924999Y-59599500D01*
X141924980Y-59599501D01*
X141822203Y-59610000D01*
X141822200Y-59610001D01*
X141655668Y-59665185D01*
X141655663Y-59665187D01*
X141506342Y-59757289D01*
X141377181Y-59886451D01*
X141375294Y-59884564D01*
X141328375Y-59917788D01*
X141288132Y-59924500D01*
X140863705Y-59924500D01*
X140845735Y-59923191D01*
X140821972Y-59919710D01*
X140776890Y-59923655D01*
X140769933Y-59924264D01*
X140764532Y-59924500D01*
X140756287Y-59924500D01*
X140730222Y-59927546D01*
X140723705Y-59928308D01*
X140718403Y-59928771D01*
X140647201Y-59935001D01*
X140640134Y-59936461D01*
X140640122Y-59936404D01*
X140632753Y-59938038D01*
X140632767Y-59938095D01*
X140625739Y-59939760D01*
X140556505Y-59964959D01*
X140553568Y-59966028D01*
X140480665Y-59990186D01*
X140480663Y-59990186D01*
X140480660Y-59990188D01*
X140474123Y-59993236D01*
X140474098Y-59993184D01*
X140467310Y-59996470D01*
X140467336Y-59996521D01*
X140460885Y-59999761D01*
X140396723Y-60041961D01*
X140331346Y-60082285D01*
X140325682Y-60086765D01*
X140325646Y-60086719D01*
X140319798Y-60091484D01*
X140319835Y-60091528D01*
X140314310Y-60096164D01*
X140314304Y-60096169D01*
X140314304Y-60096170D01*
X140261614Y-60152017D01*
X139864898Y-60548734D01*
X139475451Y-60938181D01*
X139414128Y-60971666D01*
X139387770Y-60974500D01*
X137516831Y-60974500D01*
X137449792Y-60954815D01*
X137404037Y-60902011D01*
X137398171Y-60886496D01*
X137353813Y-60740271D01*
X137260913Y-60566467D01*
X137260909Y-60566460D01*
X137135883Y-60414116D01*
X136983539Y-60289090D01*
X136983532Y-60289086D01*
X136809733Y-60196188D01*
X136809727Y-60196186D01*
X136621132Y-60138976D01*
X136621129Y-60138975D01*
X136425000Y-60119659D01*
X136228870Y-60138975D01*
X136040266Y-60196188D01*
X135866467Y-60289086D01*
X135866460Y-60289090D01*
X135714116Y-60414116D01*
X135589090Y-60566460D01*
X135589086Y-60566467D01*
X135496188Y-60740266D01*
X135438975Y-60928870D01*
X135419659Y-61125000D01*
X135438975Y-61321129D01*
X135496188Y-61509733D01*
X135589084Y-61683529D01*
X135589087Y-61683533D01*
X135589090Y-61683538D01*
X135646354Y-61753314D01*
X135673666Y-61817620D01*
X135674500Y-61831976D01*
X135674500Y-67262769D01*
X135654815Y-67329808D01*
X135638181Y-67350450D01*
X132618051Y-70370579D01*
X132556728Y-70404064D01*
X132518217Y-70406301D01*
X132400000Y-70394659D01*
X132203870Y-70413975D01*
X132015266Y-70471188D01*
X131841467Y-70564086D01*
X131841460Y-70564090D01*
X131689116Y-70689116D01*
X131564090Y-70841460D01*
X131564086Y-70841467D01*
X131471188Y-71015266D01*
X131413975Y-71203870D01*
X131394659Y-71400000D01*
X125596446Y-71400000D01*
X125775472Y-71220974D01*
X125775471Y-71220973D01*
X125702483Y-71169866D01*
X125702481Y-71169865D01*
X125496326Y-71073734D01*
X125496317Y-71073730D01*
X125276610Y-71014860D01*
X125276599Y-71014858D01*
X125050002Y-70995034D01*
X125049998Y-70995034D01*
X124823400Y-71014858D01*
X124823389Y-71014860D01*
X124603682Y-71073730D01*
X124603673Y-71073734D01*
X124397513Y-71169868D01*
X124324527Y-71220972D01*
X124324526Y-71220973D01*
X125005600Y-71902046D01*
X124924852Y-71914835D01*
X124811955Y-71972359D01*
X124722359Y-72061955D01*
X124664835Y-72174852D01*
X124652046Y-72255600D01*
X123970973Y-71574527D01*
X123919868Y-71647513D01*
X123823734Y-71853673D01*
X123823730Y-71853682D01*
X123764860Y-72073389D01*
X123764858Y-72073400D01*
X123745034Y-72299997D01*
X123745034Y-72300002D01*
X107051680Y-72300002D01*
X107023903Y-72196337D01*
X106924035Y-71982171D01*
X106918425Y-71974158D01*
X106788494Y-71788597D01*
X106621402Y-71621506D01*
X106621401Y-71621505D01*
X106435405Y-71491269D01*
X106391781Y-71436692D01*
X106384588Y-71367193D01*
X106416110Y-71304839D01*
X106435405Y-71288119D01*
X106511373Y-71234925D01*
X105882533Y-70606086D01*
X105892315Y-70604680D01*
X106023100Y-70544952D01*
X106131761Y-70450798D01*
X106209493Y-70329844D01*
X106233076Y-70249524D01*
X106864925Y-70881373D01*
X106864926Y-70881373D01*
X106923598Y-70797582D01*
X106923600Y-70797578D01*
X107023429Y-70583492D01*
X107023433Y-70583483D01*
X107084567Y-70355326D01*
X107084569Y-70355315D01*
X107105157Y-70120001D01*
X107105157Y-70119998D01*
X107084569Y-69884684D01*
X107084567Y-69884673D01*
X107023433Y-69656516D01*
X107023429Y-69656507D01*
X106923600Y-69442423D01*
X106923599Y-69442421D01*
X106864925Y-69358626D01*
X106864925Y-69358625D01*
X106233076Y-69990475D01*
X106209493Y-69910156D01*
X106131761Y-69789202D01*
X106023100Y-69695048D01*
X105892315Y-69635320D01*
X105882533Y-69633913D01*
X106511373Y-69005073D01*
X106511373Y-69005072D01*
X106435405Y-68951880D01*
X106391780Y-68897304D01*
X106384586Y-68827805D01*
X106416108Y-68765451D01*
X106435399Y-68748734D01*
X106621401Y-68618495D01*
X106788495Y-68451401D01*
X106924035Y-68257830D01*
X107023903Y-68043663D01*
X107085063Y-67815408D01*
X107105659Y-67580000D01*
X107085063Y-67344592D01*
X107036962Y-67165075D01*
X107023905Y-67116344D01*
X107023904Y-67116343D01*
X107023903Y-67116337D01*
X106924035Y-66902171D01*
X106918425Y-66894158D01*
X106788494Y-66708597D01*
X106621402Y-66541506D01*
X106621396Y-66541501D01*
X106435842Y-66411575D01*
X106392217Y-66356998D01*
X106385023Y-66287500D01*
X106416546Y-66225145D01*
X106435842Y-66208425D01*
X106503702Y-66160909D01*
X106621401Y-66078495D01*
X106788495Y-65911401D01*
X106924035Y-65717830D01*
X107023903Y-65503663D01*
X107085063Y-65275408D01*
X107105659Y-65040000D01*
X107085063Y-64804592D01*
X107023903Y-64576337D01*
X106924035Y-64362171D01*
X106918425Y-64354158D01*
X106788494Y-64168597D01*
X106621402Y-64001506D01*
X106621396Y-64001501D01*
X106435842Y-63871575D01*
X106392217Y-63816998D01*
X106385023Y-63747500D01*
X106416546Y-63685145D01*
X106435842Y-63668425D01*
X106578325Y-63568657D01*
X106621401Y-63538495D01*
X106788495Y-63371401D01*
X106924035Y-63177830D01*
X107023903Y-62963663D01*
X107085063Y-62735408D01*
X107105659Y-62500000D01*
X107103934Y-62480289D01*
X107099314Y-62427481D01*
X107085063Y-62264592D01*
X107023903Y-62036337D01*
X106924035Y-61822171D01*
X106921148Y-61818047D01*
X106891008Y-61775002D01*
X116595034Y-61775002D01*
X116614858Y-62001599D01*
X116614860Y-62001610D01*
X116673730Y-62221317D01*
X116673734Y-62221326D01*
X116769865Y-62427481D01*
X116769868Y-62427485D01*
X116778812Y-62440260D01*
X116801138Y-62506467D01*
X116784125Y-62574234D01*
X116751549Y-62610645D01*
X116742456Y-62617452D01*
X116742451Y-62617457D01*
X116656206Y-62732664D01*
X116656202Y-62732671D01*
X116605908Y-62867517D01*
X116599501Y-62927116D01*
X116599501Y-62927123D01*
X116599500Y-62927135D01*
X116599500Y-64622870D01*
X116599501Y-64622876D01*
X116605908Y-64682483D01*
X116656202Y-64817328D01*
X116656206Y-64817335D01*
X116742452Y-64932544D01*
X116742455Y-64932547D01*
X116857664Y-65018793D01*
X116857671Y-65018797D01*
X116992517Y-65069091D01*
X116992516Y-65069091D01*
X116999444Y-65069835D01*
X117052127Y-65075500D01*
X118747872Y-65075499D01*
X118807483Y-65069091D01*
X118942331Y-65018796D01*
X119057546Y-64932546D01*
X119143796Y-64817331D01*
X119194091Y-64682483D01*
X119200500Y-64622873D01*
X119200499Y-62927128D01*
X119194091Y-62867517D01*
X119144819Y-62735413D01*
X119143797Y-62732671D01*
X119143793Y-62732664D01*
X119084763Y-62653811D01*
X119057546Y-62617454D01*
X119048449Y-62610644D01*
X119006581Y-62554710D01*
X119001599Y-62485018D01*
X119021191Y-62440253D01*
X119030134Y-62427481D01*
X119126265Y-62221326D01*
X119126269Y-62221317D01*
X119185139Y-62001610D01*
X119185141Y-62001599D01*
X119204966Y-61775002D01*
X119204966Y-61774997D01*
X119185141Y-61548400D01*
X119185139Y-61548389D01*
X119126269Y-61328682D01*
X119126265Y-61328671D01*
X119030133Y-61122516D01*
X119030131Y-61122512D01*
X118979025Y-61049526D01*
X118297953Y-61730598D01*
X118285165Y-61649852D01*
X118227641Y-61536955D01*
X118138045Y-61447359D01*
X118025148Y-61389835D01*
X117944400Y-61377046D01*
X118625472Y-60695974D01*
X118625471Y-60695973D01*
X118552483Y-60644866D01*
X118552481Y-60644865D01*
X118346326Y-60548734D01*
X118346317Y-60548730D01*
X118126610Y-60489860D01*
X118126599Y-60489858D01*
X117900002Y-60470034D01*
X117899998Y-60470034D01*
X117673400Y-60489858D01*
X117673389Y-60489860D01*
X117453682Y-60548730D01*
X117453673Y-60548734D01*
X117247513Y-60644868D01*
X117174527Y-60695972D01*
X117174526Y-60695973D01*
X117855600Y-61377046D01*
X117774852Y-61389835D01*
X117661955Y-61447359D01*
X117572359Y-61536955D01*
X117514835Y-61649852D01*
X117502046Y-61730600D01*
X116820973Y-61049527D01*
X116769868Y-61122513D01*
X116673735Y-61328671D01*
X116673730Y-61328682D01*
X116614860Y-61548389D01*
X116614858Y-61548400D01*
X116595034Y-61774997D01*
X116595034Y-61775002D01*
X106891008Y-61775002D01*
X106788494Y-61628597D01*
X106621402Y-61461506D01*
X106621395Y-61461501D01*
X106427834Y-61325967D01*
X106427830Y-61325965D01*
X106387777Y-61307288D01*
X106213663Y-61226097D01*
X106213659Y-61226096D01*
X106213655Y-61226094D01*
X105985413Y-61164938D01*
X105985403Y-61164936D01*
X105750001Y-61144341D01*
X105749999Y-61144341D01*
X105514596Y-61164936D01*
X105514586Y-61164938D01*
X105286344Y-61226094D01*
X105286335Y-61226098D01*
X105072171Y-61325964D01*
X105072169Y-61325965D01*
X104878597Y-61461505D01*
X104711503Y-61628599D01*
X104710349Y-61629975D01*
X104709688Y-61630414D01*
X104707676Y-61632427D01*
X104707271Y-61632022D01*
X104652173Y-61668671D01*
X104582312Y-61669772D01*
X104522946Y-61632928D01*
X104497663Y-61589265D01*
X104494814Y-61580666D01*
X104402712Y-61431344D01*
X104278656Y-61307288D01*
X104185888Y-61250069D01*
X104129336Y-61215187D01*
X104129331Y-61215185D01*
X104127862Y-61214698D01*
X103962797Y-61160001D01*
X103962795Y-61160000D01*
X103860010Y-61149500D01*
X102559998Y-61149500D01*
X102559981Y-61149501D01*
X102457203Y-61160000D01*
X102457200Y-61160001D01*
X102290668Y-61215185D01*
X102290663Y-61215187D01*
X102141342Y-61307289D01*
X102017289Y-61431342D01*
X101925187Y-61580663D01*
X101925185Y-61580668D01*
X101908701Y-61630414D01*
X101870001Y-61747203D01*
X101870001Y-61747204D01*
X101870000Y-61747204D01*
X101859500Y-61849983D01*
X101859500Y-63150001D01*
X101859501Y-63150018D01*
X101870000Y-63252796D01*
X101870001Y-63252799D01*
X101909303Y-63371402D01*
X101925186Y-63419334D01*
X102017288Y-63568656D01*
X102141344Y-63692712D01*
X102290666Y-63784814D01*
X102299264Y-63787663D01*
X102356707Y-63827433D01*
X102383531Y-63891948D01*
X102371217Y-63960724D01*
X102342234Y-63997483D01*
X102342427Y-63997676D01*
X102340798Y-63999304D01*
X102339975Y-64000349D01*
X102338599Y-64001503D01*
X102171505Y-64168597D01*
X102035965Y-64362169D01*
X102035964Y-64362171D01*
X101936098Y-64576335D01*
X101936094Y-64576344D01*
X101874938Y-64804586D01*
X101874936Y-64804596D01*
X101854341Y-65039999D01*
X101854341Y-65040000D01*
X101874936Y-65275403D01*
X101874938Y-65275413D01*
X101936094Y-65503655D01*
X101936096Y-65503659D01*
X101936097Y-65503663D01*
X102034367Y-65714403D01*
X102035965Y-65717830D01*
X102035967Y-65717834D01*
X102124915Y-65844864D01*
X102171501Y-65911396D01*
X102171506Y-65911402D01*
X102338597Y-66078493D01*
X102338603Y-66078498D01*
X102524158Y-66208425D01*
X102567783Y-66263002D01*
X102574977Y-66332500D01*
X102543454Y-66394855D01*
X102524158Y-66411575D01*
X102338597Y-66541505D01*
X102171505Y-66708597D01*
X102035965Y-66902169D01*
X102035964Y-66902171D01*
X101936098Y-67116335D01*
X101936094Y-67116344D01*
X101874938Y-67344586D01*
X101874936Y-67344596D01*
X101854341Y-67579999D01*
X101854341Y-67580000D01*
X101874936Y-67815403D01*
X101874938Y-67815413D01*
X101936094Y-68043655D01*
X101936096Y-68043659D01*
X101936097Y-68043663D01*
X102013824Y-68210348D01*
X102035965Y-68257830D01*
X102035967Y-68257834D01*
X102134060Y-68397924D01*
X102171505Y-68451401D01*
X102338599Y-68618495D01*
X102455002Y-68700001D01*
X102524594Y-68748730D01*
X102568218Y-68803307D01*
X102575411Y-68872806D01*
X102543889Y-68935160D01*
X102524593Y-68951880D01*
X102448626Y-69005072D01*
X102448625Y-69005072D01*
X103077466Y-69633913D01*
X103067685Y-69635320D01*
X102936900Y-69695048D01*
X102828239Y-69789202D01*
X102750507Y-69910156D01*
X102726923Y-69990476D01*
X102095072Y-69358625D01*
X102036401Y-69442419D01*
X101936570Y-69656507D01*
X101936566Y-69656516D01*
X101875432Y-69884673D01*
X101875430Y-69884684D01*
X101854843Y-70119998D01*
X101854843Y-70120001D01*
X101875430Y-70355315D01*
X101875432Y-70355326D01*
X101936566Y-70583483D01*
X101936570Y-70583492D01*
X102036400Y-70797579D01*
X102036402Y-70797583D01*
X102095072Y-70881373D01*
X102095073Y-70881373D01*
X102726923Y-70249523D01*
X102750507Y-70329844D01*
X102828239Y-70450798D01*
X102936900Y-70544952D01*
X103067685Y-70604680D01*
X103077466Y-70606086D01*
X102448625Y-71234925D01*
X102524594Y-71288119D01*
X102568219Y-71342696D01*
X102575413Y-71412194D01*
X102543890Y-71474549D01*
X102524595Y-71491269D01*
X102338594Y-71621508D01*
X102171505Y-71788597D01*
X102035965Y-71982169D01*
X102035964Y-71982171D01*
X101936098Y-72196335D01*
X101936094Y-72196344D01*
X101874938Y-72424586D01*
X101874936Y-72424596D01*
X101854341Y-72659999D01*
X101854341Y-72660000D01*
X101874936Y-72895403D01*
X101874938Y-72895413D01*
X101936094Y-73123655D01*
X101936096Y-73123659D01*
X101936097Y-73123663D01*
X101944861Y-73142457D01*
X102035965Y-73337830D01*
X102035967Y-73337834D01*
X102115997Y-73452128D01*
X102171505Y-73531401D01*
X102338599Y-73698495D01*
X102524594Y-73828730D01*
X102568218Y-73883307D01*
X102575411Y-73952806D01*
X102543889Y-74015160D01*
X102524593Y-74031880D01*
X102448626Y-74085072D01*
X102448625Y-74085072D01*
X103077466Y-74713913D01*
X103067685Y-74715320D01*
X102936900Y-74775048D01*
X102828239Y-74869202D01*
X102750507Y-74990156D01*
X102726923Y-75070476D01*
X102095072Y-74438625D01*
X102036401Y-74522419D01*
X101936570Y-74736507D01*
X101936566Y-74736516D01*
X101875432Y-74964673D01*
X101875430Y-74964684D01*
X101854843Y-75199998D01*
X101854843Y-75200001D01*
X101875430Y-75435315D01*
X101875432Y-75435326D01*
X101936566Y-75663483D01*
X101936570Y-75663492D01*
X102036400Y-75877579D01*
X102036402Y-75877583D01*
X102095072Y-75961373D01*
X102095073Y-75961373D01*
X102726923Y-75329523D01*
X102750507Y-75409844D01*
X102828239Y-75530798D01*
X102936900Y-75624952D01*
X103067685Y-75684680D01*
X103077466Y-75686086D01*
X102448625Y-76314925D01*
X102524594Y-76368119D01*
X102568219Y-76422696D01*
X102575413Y-76492194D01*
X102543890Y-76554549D01*
X102524595Y-76571269D01*
X102338594Y-76701508D01*
X102171505Y-76868597D01*
X102035965Y-77062169D01*
X102035964Y-77062171D01*
X101936098Y-77276335D01*
X101936094Y-77276344D01*
X101874938Y-77504586D01*
X101874936Y-77504596D01*
X101854341Y-77739999D01*
X101854341Y-77740000D01*
X99700500Y-77740000D01*
X99700500Y-50877401D01*
X180125746Y-50877401D01*
X180135745Y-51087327D01*
X180185296Y-51291578D01*
X180185298Y-51291582D01*
X180272598Y-51482743D01*
X180272601Y-51482748D01*
X180272602Y-51482750D01*
X180272604Y-51482753D01*
X180335627Y-51571256D01*
X180394515Y-51653953D01*
X180394520Y-51653959D01*
X180546620Y-51798985D01*
X180641578Y-51860011D01*
X180723428Y-51912613D01*
X180918543Y-51990725D01*
X181021729Y-52010612D01*
X181124914Y-52030500D01*
X181124915Y-52030500D01*
X181282419Y-52030500D01*
X181282425Y-52030500D01*
X181439218Y-52015528D01*
X181640875Y-51956316D01*
X181827682Y-51860011D01*
X181992886Y-51730092D01*
X182130519Y-51571256D01*
X182235604Y-51389244D01*
X182304344Y-51190633D01*
X182334254Y-50982602D01*
X182324254Y-50772670D01*
X182274704Y-50568424D01*
X182274701Y-50568417D01*
X182187401Y-50377256D01*
X182187398Y-50377251D01*
X182187397Y-50377250D01*
X182187396Y-50377247D01*
X182065486Y-50206048D01*
X182065484Y-50206046D01*
X182065479Y-50206040D01*
X181913379Y-50061014D01*
X181736574Y-49947388D01*
X181541455Y-49869274D01*
X181335086Y-49829500D01*
X181335085Y-49829500D01*
X181177575Y-49829500D01*
X181020782Y-49844472D01*
X181020778Y-49844473D01*
X180819127Y-49903683D01*
X180632313Y-49999991D01*
X180467116Y-50129905D01*
X180467112Y-50129909D01*
X180329478Y-50288746D01*
X180224398Y-50470750D01*
X180155656Y-50669365D01*
X180155656Y-50669367D01*
X180140804Y-50772670D01*
X180125746Y-50877401D01*
X99700500Y-50877401D01*
X99700500Y-40224500D01*
X99720185Y-40157461D01*
X99772989Y-40111706D01*
X99824500Y-40100500D01*
X101427037Y-40100500D01*
X101494076Y-40120185D01*
G37*
G04 #@! TD.AperFunction*
G04 #@! TA.AperFunction,Conductor*
G36*
X144484415Y-40120185D02*
G01*
X144530170Y-40172989D01*
X144540114Y-40242147D01*
X144511089Y-40305703D01*
X144487227Y-40326954D01*
X144304848Y-40451296D01*
X145026891Y-41173338D01*
X144888052Y-41260577D01*
X144760577Y-41388052D01*
X144673338Y-41526891D01*
X143952295Y-40805848D01*
X143898600Y-40873180D01*
X143763709Y-41106818D01*
X143665148Y-41357947D01*
X143665142Y-41357966D01*
X143605113Y-41620971D01*
X143605113Y-41620973D01*
X143584953Y-41889995D01*
X143584953Y-41890004D01*
X143605113Y-42159026D01*
X143605113Y-42159028D01*
X143665142Y-42422033D01*
X143665148Y-42422052D01*
X143714706Y-42548324D01*
X143720875Y-42617921D01*
X143688437Y-42679804D01*
X143627692Y-42714327D01*
X143562729Y-42712117D01*
X143442000Y-42674877D01*
X143340623Y-42643606D01*
X143340619Y-42643605D01*
X143340615Y-42643604D01*
X143215823Y-42624794D01*
X143081187Y-42604500D01*
X143081182Y-42604500D01*
X142818818Y-42604500D01*
X142818812Y-42604500D01*
X142657247Y-42628853D01*
X142559385Y-42643604D01*
X142559382Y-42643605D01*
X142559376Y-42643606D01*
X142308673Y-42720938D01*
X142111052Y-42816107D01*
X142042111Y-42827459D01*
X141977976Y-42799736D01*
X141939011Y-42741741D01*
X141937586Y-42671886D01*
X141941823Y-42659085D01*
X142034851Y-42422052D01*
X142034857Y-42422033D01*
X142094886Y-42159028D01*
X142094886Y-42159026D01*
X142115047Y-41890004D01*
X142115047Y-41889995D01*
X142094886Y-41620973D01*
X142094886Y-41620971D01*
X142034857Y-41357966D01*
X142034851Y-41357947D01*
X141936290Y-41106818D01*
X141936291Y-41106818D01*
X141801397Y-40873177D01*
X141747704Y-40805847D01*
X141026661Y-41526890D01*
X140939423Y-41388052D01*
X140811948Y-41260577D01*
X140673108Y-41173338D01*
X141395150Y-40451296D01*
X141212773Y-40326954D01*
X141168471Y-40272925D01*
X141160412Y-40203522D01*
X141191155Y-40140779D01*
X141250939Y-40104617D01*
X141282625Y-40100500D01*
X144417376Y-40100500D01*
X144484415Y-40120185D01*
G37*
G04 #@! TD.AperFunction*
G04 #@! TA.AperFunction,Conductor*
G36*
X106574076Y-40120185D02*
G01*
X106619831Y-40172989D01*
X106629775Y-40242147D01*
X106600750Y-40305703D01*
X106576888Y-40326954D01*
X106489848Y-40386296D01*
X107211891Y-41108338D01*
X107073052Y-41195577D01*
X106945577Y-41323052D01*
X106858338Y-41461891D01*
X106137295Y-40740848D01*
X106083600Y-40808180D01*
X105948709Y-41041818D01*
X105850148Y-41292947D01*
X105850142Y-41292966D01*
X105790113Y-41555971D01*
X105790113Y-41555973D01*
X105769953Y-41824995D01*
X105769953Y-41825004D01*
X105790113Y-42094026D01*
X105790113Y-42094028D01*
X105850142Y-42357033D01*
X105850148Y-42357052D01*
X105899706Y-42483324D01*
X105905875Y-42552921D01*
X105873437Y-42614804D01*
X105812692Y-42649327D01*
X105747729Y-42647117D01*
X105649734Y-42616889D01*
X105525623Y-42578606D01*
X105525619Y-42578605D01*
X105525615Y-42578604D01*
X105400823Y-42559794D01*
X105266187Y-42539500D01*
X105266182Y-42539500D01*
X105003818Y-42539500D01*
X105003812Y-42539500D01*
X104842247Y-42563853D01*
X104744385Y-42578604D01*
X104744382Y-42578605D01*
X104744376Y-42578606D01*
X104493673Y-42655938D01*
X104296052Y-42751107D01*
X104227111Y-42762459D01*
X104162976Y-42734736D01*
X104124011Y-42676741D01*
X104122586Y-42606886D01*
X104126823Y-42594085D01*
X104219851Y-42357052D01*
X104219857Y-42357033D01*
X104279886Y-42094028D01*
X104279886Y-42094026D01*
X104300047Y-41825004D01*
X104300047Y-41824995D01*
X104279886Y-41555973D01*
X104279886Y-41555971D01*
X104219857Y-41292966D01*
X104219851Y-41292947D01*
X104121290Y-41041818D01*
X104121291Y-41041818D01*
X103986397Y-40808177D01*
X103932704Y-40740847D01*
X103211661Y-41461890D01*
X103124423Y-41323052D01*
X102996948Y-41195577D01*
X102858108Y-41108338D01*
X103580150Y-40386296D01*
X103493111Y-40326954D01*
X103448809Y-40272925D01*
X103440750Y-40203521D01*
X103471493Y-40140779D01*
X103531277Y-40104617D01*
X103562963Y-40100500D01*
X106507037Y-40100500D01*
X106574076Y-40120185D01*
G37*
G04 #@! TD.AperFunction*
M02*
